<svg width="1407" height="580" viewBox="0 0 1407 580" fill="none" xmlns="http://www.w3.org/2000/svg">
<path fill-rule="evenodd" clip-rule="evenodd" d="M1407 0H0V580H1407V0ZM217.648 282.809L259.872 325.031V255.039H248.224V296.225L206 254V323.473H217.648V282.809ZM310.144 323.473H353.408V311.824H321.896V295.08H345.608V283.328H321.896V266.793H353.408V255.039H310.144V323.473ZM458.354 323.473H444.522L428.818 299.76L413.114 323.473H399.282L421.85 289.152L399.386 255.039H413.322L428.818 278.648L444.418 255.039H458.354L435.786 289.152L458.354 323.473ZM553.615 266.793V255.039H500.887V266.793H521.375V323.473H533.023V266.793H553.615ZM674.7 323.473H662.948V255.039H688.428C691.478 255.039 694.39 255.561 697.164 256.6C700.006 257.57 702.537 258.992 704.756 260.863C707.044 262.875 708.812 265.197 710.06 267.832C711.308 270.396 711.932 273.102 711.932 275.943C711.932 278.855 711.308 281.594 710.06 284.16C708.812 286.725 707.044 289.049 704.756 291.129C702.537 293 700.006 294.455 697.164 295.496C694.39 296.467 691.478 296.951 688.428 296.951H674.596L674.7 323.473ZM674.596 266.793V285.199H688.428C691.964 285.199 694.841 284.195 697.06 282.184C699.14 280.52 700.18 278.439 700.18 275.943C700.18 273.518 699.14 271.438 697.06 269.703C694.772 267.762 691.894 266.793 688.428 266.793H674.596ZM770.213 293.312L793.197 323.473H807.653L786.853 295.809C787.616 295.809 788.794 295.635 790.389 295.287C792.053 294.941 793.509 294.525 794.757 294.039C798.224 292.723 801.136 290.574 803.493 287.592C806.197 284.057 807.549 280.174 807.549 275.943C807.549 273.17 806.96 270.535 805.781 268.039C804.602 265.475 802.904 263.221 800.685 261.279C798.466 259.27 795.866 257.744 792.885 256.703C789.973 255.594 786.853 255.039 783.525 255.039H758.461L758.565 323.473H770.213V293.312ZM770.213 285.199V266.793H783.525C787.477 266.793 790.597 267.832 792.885 269.912C794.826 271.645 795.797 273.656 795.797 275.943C795.797 277.607 795.242 279.133 794.133 280.52C793.024 281.906 791.706 282.912 790.181 283.535C787.754 284.645 784.496 285.199 780.405 285.199H770.213ZM901.718 319.416C896.448 322.535 890.694 324.096 884.454 324.096C878.214 324.096 872.424 322.535 867.086 319.416C861.816 316.297 857.622 312.066 854.502 306.729C851.382 301.389 849.822 295.564 849.822 289.256C849.822 282.947 851.382 277.123 854.502 271.783C857.622 266.445 861.816 262.217 867.086 259.096C872.424 255.977 878.214 254.416 884.454 254.416C890.694 254.416 896.448 255.977 901.718 259.096C907.056 262.217 911.286 266.445 914.406 271.783C917.526 277.123 919.086 282.947 919.086 289.256C919.086 295.564 917.526 301.389 914.406 306.729C911.286 312.066 907.056 316.297 901.718 319.416ZM895.894 269.184C892.427 267.104 888.614 266.064 884.454 266.064C880.294 266.064 876.446 267.104 872.91 269.184C869.443 271.264 866.67 274.107 864.59 277.713C862.579 281.248 861.574 285.096 861.574 289.256C861.574 293.416 862.579 297.299 864.59 300.904C866.67 304.439 869.443 307.248 872.91 309.328C876.446 311.408 880.294 312.447 884.454 312.447C888.614 312.447 892.427 311.408 895.894 309.328C899.43 307.248 902.203 304.439 904.214 300.904C906.294 297.367 907.334 293.484 907.334 289.256C907.334 285.027 906.294 281.145 904.214 277.607C902.203 274.072 899.43 271.264 895.894 269.184ZM981.679 324.096C985.562 324.096 989.167 323.334 992.495 321.809C995.893 320.213 998.77 317.961 1001.13 315.049C1006.19 309.016 1008.72 300.973 1008.72 290.92V255.039H997.071V290.92C997.071 297.506 995.685 302.742 992.911 306.623C990.138 310.506 986.394 312.447 981.679 312.447C979.045 312.447 976.618 311.686 974.399 310.16C972.181 308.635 970.412 306.484 969.095 303.713L958.591 308.912C961.018 313.627 964.242 317.336 968.263 320.039C972.354 322.744 976.826 324.096 981.679 324.096ZM1100.76 323.473H1057.49V255.039H1100.76V266.793H1069.25V283.328H1092.96V295.08H1069.25V311.824H1100.76V323.473ZM1200.27 266.793V255.039H1147.54V266.793H1168.03V323.473H1179.68V266.793H1200.27Z" fill="black"/>
</svg>
