<svg width="503" height="130" viewBox="0 0 503 130" fill="none" xmlns="http://www.w3.org/2000/svg">
<path d="M191.878 1.87527C191.334 3.14547 190.911 7.92385 190.669 15.3636C190.427 21.6541 190.124 26.9164 190.003 27.0979C189.822 27.2188 190.003 27.7027 190.366 28.1261C191.213 29.1544 191.697 45.1226 190.911 45.6065C190.548 45.788 190.306 46.5138 190.306 47.1792C190.306 47.784 190.064 48.3284 189.701 48.3284C189.398 48.3284 189.157 48.5099 189.157 48.7518C189.398 50.2035 189.036 51.3527 188.431 50.9898C188.068 50.7478 187.886 49.8405 188.128 48.6913C188.37 47.3606 188.31 47.1187 187.886 47.784C187.584 48.3284 187.221 50.9293 187.04 53.6511C186.798 58.2481 186.011 60.4256 184.499 60.4256C183.834 60.4256 182.503 62.4821 182.503 63.4499C182.503 64.0547 182.685 63.9337 183.047 63.1474C183.471 62.1797 183.592 62.3006 183.592 64.0547C183.652 65.5669 183.471 65.9298 183.047 65.2644C182.624 64.5386 182.443 64.5991 182.08 65.5669C181.414 67.3814 178.088 70.2243 177.543 69.438C177.241 68.9541 177.059 68.9541 176.757 69.438C176.515 69.8009 176.515 70.1033 176.817 70.1638C177.059 70.1638 176.757 70.4057 176.092 70.7082C175.426 71.0106 173.914 71.1316 172.765 70.9501C171.253 70.7686 171.011 70.8291 171.797 71.192C172.825 71.6759 172.886 71.7364 171.979 72.0993C171.313 72.3413 171.132 72.8252 171.374 73.551C171.797 74.7002 171.676 74.6397 170.345 72.8857C169.62 71.9179 169.62 71.7969 170.285 72.2203C170.89 72.5227 171.011 72.4623 170.708 72.0389C169.982 70.8291 167.926 71.2525 167.382 72.6437C167.079 73.43 167.019 74.2768 167.2 74.5793C167.321 74.8817 167.14 74.9422 166.656 74.8212C166.172 74.6397 165.265 74.9422 164.66 75.4865C163.813 76.2124 163.45 76.2729 163.269 75.668C163.087 75.3051 162.724 75.0631 162.422 75.3051C162.119 75.4865 162.119 76.1519 162.543 76.8172C162.906 77.5431 162.966 78.2689 162.724 78.4504C162.482 78.6923 162.18 78.5108 162.059 78.0874C161.877 77.7245 161.514 77.3616 161.152 77.3616C160.789 77.3616 160.668 77.7245 160.849 78.1479C160.97 78.5108 160.063 79.5391 158.732 80.3859C157.462 81.2327 156.615 81.9585 156.918 82.0795C157.28 82.2005 157.401 82.7448 157.22 83.4102C157.039 84.0755 156.555 84.378 156.071 84.1965C155.526 84.015 155.163 84.3175 155.103 84.9828C155.103 85.6482 154.982 86.495 154.982 86.9789C154.922 87.4627 154.498 88.0071 154.014 88.1886C153.47 88.37 153.107 89.1563 153.167 89.8822C153.228 90.6685 152.865 91.2733 152.442 91.2733C151.837 91.2733 151.776 91.6363 152.2 92.7855C152.502 93.5718 152.563 94.4186 152.26 94.5396C152.018 94.721 151.413 93.7533 150.99 92.4226C150.022 89.5193 148.752 88.7934 147.603 90.3661C147.119 90.9709 146.756 91.1524 146.756 90.7895C146.756 90.3056 146.212 90.1846 145.304 90.4265C144.095 90.729 143.792 90.4265 143.248 88.8539C142.885 87.8257 142.703 86.5555 142.885 85.9506C143.127 85.1643 143.066 85.1038 142.643 85.7087C142.28 86.3135 141.736 85.5272 140.707 82.8658C139.982 80.8093 139.074 79.1762 138.772 79.1762C138.469 79.1762 138.348 78.9342 138.59 78.6318C138.772 78.3294 138.651 77.906 138.348 77.7245C137.985 77.4826 137.985 76.6358 138.288 75.547C138.59 74.5188 138.59 73.7325 138.288 73.7325C137.502 73.7325 137.018 75.668 137.32 77.8455C137.502 79.4181 137.381 79.6601 136.715 79.1157C136.05 78.5713 135.808 78.6923 135.506 79.4181C135.324 79.9625 134.901 80.2044 134.598 80.0835C134.356 79.902 134.175 80.5674 134.235 81.5351C134.296 82.5029 134.598 83.1682 134.901 82.9263C135.203 82.7448 135.324 83.0473 135.082 83.5916C134.901 84.1965 134.961 84.6199 135.264 84.6199C135.627 84.6199 135.868 84.9223 135.868 85.2853C135.868 85.6482 136.534 87.5232 137.32 89.3983C138.167 91.2733 139.558 94.6606 140.405 96.959C141.312 99.2575 142.28 101.616 142.522 102.1C146.272 109.359 146.756 110.689 146.393 112.988C146.03 115.407 147.361 120.367 149.901 126.174C151.292 129.319 151.413 129.379 153.954 128.835C155.95 128.472 156.071 128.291 156.071 125.75C156.131 123.452 156.373 122.907 157.704 122.303L159.276 121.516L158.49 118.069C158.067 116.133 157.159 112.927 156.555 110.931C155.587 107.967 155.466 106.637 155.889 103.431C156.252 101.012 156.797 99.318 157.462 98.8341C158.006 98.4107 158.248 97.8058 158.067 97.5034C157.825 97.1405 158.067 96.6566 158.611 96.4751C159.156 96.2332 159.458 95.9308 159.276 95.7493C159.095 95.5074 159.156 95.084 159.518 94.6606C160.849 93.0879 163.027 89.4588 162.664 89.4588C162.422 89.4588 163.208 88.7934 164.357 87.9466L166.414 86.374L168.107 93.2089C169.075 96.959 170.043 100.891 170.285 101.979C171.011 104.762 172.946 107.846 174.156 108.088C175.245 108.33 179.116 105.911 178.571 105.367C178.269 105.004 178.995 103.975 181.051 101.919C181.777 101.193 182.866 98.8946 183.41 96.838C184.378 93.2694 184.378 92.725 183.41 86.8579C182.866 83.4707 181.898 79.2972 181.354 77.664C180.809 75.9704 180.326 74.3373 180.326 73.9139C180.326 73.4905 179.842 72.8252 179.176 72.3413C178.209 71.6154 178.148 71.4945 179.116 70.7082C179.66 70.2848 180.023 70.1638 179.963 70.4662C179.6 72.5832 180.93 72.8857 182.926 71.1316C183.531 70.5872 184.378 70.1033 184.802 70.1033C185.225 70.1033 186.435 69.4984 187.463 68.7726C188.733 67.8653 189.398 67.6839 189.58 68.1678C189.882 69.1355 192.12 67.9258 192.12 66.7766C192.12 66.2927 192.544 65.6878 193.149 65.3854C193.935 64.9015 194.056 64.3571 193.572 61.8772C192.604 56.1311 193.088 44.1549 194.358 43.671C195.447 43.2476 195.326 42.2798 194.237 42.2798C193.753 42.2798 193.33 41.9774 193.33 41.6145C193.33 41.2516 193.753 41.0701 194.237 41.312C194.721 41.4935 195.205 41.3725 195.205 41.0701C195.266 40.7072 195.326 40.2838 195.387 39.9813C195.991 37.6224 196.536 33.086 197.262 24.1341C197.746 18.3274 198.411 11.7949 198.834 9.61745C199.439 6.35122 199.439 5.20199 198.713 2.96402C197.927 0.363125 197.745 0.242153 195.266 0.0606958C192.846 -0.120762 192.665 0.00020991 191.878 1.87527ZM184.681 67.079C184.439 68.7121 183.652 69.3775 183.652 67.8653C183.652 66.7766 184.136 65.8693 184.681 65.8693C184.741 65.8693 184.802 66.4137 184.681 67.079ZM166.353 77.0592C166.111 77.5431 165.628 77.9665 165.144 77.9665C164.115 77.9665 164.055 76.9382 165.083 76.5753C166.414 76.0309 166.716 76.1519 166.353 77.0592ZM169.559 76.5148C169.378 76.6963 168.833 76.7567 168.41 76.5753C167.926 76.3938 168.107 76.2124 168.773 76.2124C169.438 76.1519 169.801 76.3333 169.559 76.5148ZM162.301 80.3859C160.607 81.7771 160.063 81.898 160.063 80.9303C160.063 80.6278 160.305 80.4464 160.607 80.6278C160.91 80.8093 161.273 80.5674 161.514 80.0835C161.696 79.5996 162.301 79.1762 162.845 79.1762C163.631 79.1762 163.511 79.4786 162.301 80.3859ZM167.382 80.8093C167.745 81.898 167.684 82.2005 166.958 82.2005C166.293 82.2005 166.172 81.8376 166.414 81.0512C166.656 80.2649 166.414 79.781 165.688 79.5391C164.72 79.2972 164.72 79.2367 165.748 79.3576C166.353 79.4181 167.079 80.0835 167.382 80.8093ZM164.297 83.0473C164.297 83.1682 163.813 83.6521 163.269 84.0755C162.301 84.8618 162.24 84.8014 163.027 83.8336C163.813 82.8658 164.297 82.5634 164.297 83.0473ZM167.019 83.3497C167.2 83.7126 166.777 83.8941 166.111 83.8336C165.446 83.7731 164.902 83.5312 164.902 83.2892C164.902 82.6239 166.595 82.6844 167.019 83.3497ZM175.366 85.2853C175.789 86.7974 174.64 90.1846 173.914 89.7007C173.309 89.3378 173.188 85.0433 173.793 84.4384C174.519 83.7126 175.063 84.015 175.366 85.2853ZM169.741 85.8901C169.741 86.1321 169.438 86.5555 169.075 86.7974C168.591 87.0393 168.591 87.3418 169.015 87.5837C169.438 87.8257 169.438 88.3095 169.196 88.7934C168.773 89.4588 168.531 89.3378 167.926 88.3095C167.563 87.5232 167.382 86.6159 167.503 86.1925C167.805 85.3457 169.741 85.1038 169.741 85.8901ZM154.256 93.4508C154.438 93.9347 154.377 94.1767 154.014 93.9952C153.651 93.8138 153.409 93.3904 153.409 93.0274C153.409 92.1806 153.833 92.3621 154.256 93.4508Z" fill="white"/>
<path d="M43.6277 21.5929C43.5067 21.7138 43.5067 22.1372 43.6882 22.5606C43.9906 23.347 42.2365 23.347 38.9703 22.5606C37.821 22.3187 37.0347 22.5606 36.0669 23.5284C34.9782 24.6172 34.4943 24.7381 32.9217 24.1938C30.6232 23.4074 30.4418 23.4074 30.8652 24.0728C31.0466 24.3752 30.6837 24.7381 30.0788 24.9196C29.232 25.101 28.9901 24.9801 29.232 24.3147C29.5345 23.5889 29.2925 23.5889 27.9014 24.4962C26.9336 25.1615 24.9375 25.6454 23.0625 25.7059C19.6753 25.8269 14.0501 28.1253 14.4735 29.2141C14.5945 29.577 14.2315 30.4238 13.6267 31.0287C12.5984 32.0569 12.4775 32.1174 12.4775 31.2101C12.4775 30.6657 12.2355 30.1819 11.8726 30.1819C11.5702 30.1819 11.2677 30.4238 11.2677 30.7867C11.2677 31.0891 10.7234 31.3916 10.1185 31.3916C9.45317 31.3916 8.84831 31.573 8.72734 31.815C8.66685 32.1174 7.27568 33.3271 5.64256 34.5973C3.3441 36.5329 1.10612 39.3757 0.682719 41.0693C0.622233 41.2508 0.440776 41.7951 0.198832 42.279C-0.103597 43.0653 -0.0431111 51.4729 0.259318 56.1908C0.38029 57.461 0.501262 57.5215 1.04563 56.7956C1.59001 56.0698 1.65049 56.0698 1.34806 56.9771C0.319804 60.1828 8.00151 74.8204 14.1106 81.2924C15.3808 82.6836 17.3768 84.1957 18.526 84.7401C19.6753 85.2845 21.9737 86.3127 23.6673 87.099C26.3287 88.3692 27.4779 88.4902 33.587 88.4297C37.3371 88.3692 41.2082 88.1273 42.176 87.9458C43.6882 87.5829 44.0511 87.8249 45.3818 89.9419C47.5593 93.4501 49.9787 98.6518 49.6763 99.1357C49.4948 99.3777 49.7972 99.922 50.2811 100.345C51.1279 101.011 51.1279 101.253 50.2206 102.221C49.6158 102.886 49.4948 103.37 49.8577 103.37C50.765 103.37 52.3981 101.616 52.3981 100.708C52.3981 100.285 52.761 99.922 53.2449 99.922C53.7893 99.922 54.0917 100.587 54.0312 101.918C53.9708 103.007 53.7288 103.733 53.3054 103.612C52.9425 103.43 52.2167 104.096 51.6723 105.063C50.4021 107.18 48.2851 109.116 47.7407 108.572C47.4988 108.39 47.9827 107.301 48.769 106.213C49.6158 105.124 49.7972 104.64 49.1924 105.124C48.2851 105.85 48.1641 105.789 48.1641 104.338C48.1641 102.704 47.2568 102.221 46.7729 103.491C46.531 104.096 46.41 104.096 46.41 103.551C46.3495 103.128 46.8939 101.918 47.5593 100.829C48.2246 99.7406 48.769 98.4704 48.769 98.047C48.769 96.8373 45.9261 98.9543 45.5632 100.406C45.3818 101.132 44.9584 101.495 44.6559 101.313C44.293 101.132 44.172 101.434 44.3535 102.16C44.535 102.825 44.3535 103.37 43.9906 103.37C43.6277 103.37 43.3252 104.398 43.3252 105.789C43.3252 107.12 43.0833 108.209 42.7204 108.209C42.418 108.209 42.3575 107.725 42.5389 107.12C42.9018 106.273 42.7809 106.213 41.9946 106.878C41.4502 107.301 40.9058 108.39 40.7244 109.237C40.4219 110.93 41.3292 113.652 42.2365 113.652C42.5389 113.652 42.6599 113.894 42.4784 114.197C42.1155 114.741 44.6559 121.032 46.652 124.54C49.9787 130.528 64.0719 118.854 65.4026 108.995C65.584 107.725 66.0074 105.063 66.3099 103.067C67.0357 98.6518 67.3986 90.0628 66.8542 90.4258C66.1889 90.8492 65.6445 86.8571 66.3099 86.1918C66.6123 85.8893 66.9147 85.1635 66.9147 84.6191C66.8542 83.8933 66.7333 83.8933 66.2494 84.8006C65.705 85.7079 65.4026 85.3449 63.8904 82.3811C61.7734 78.2076 61.7129 77.9657 63.2856 74.9414C64.7372 72.0985 64.8582 67.3202 63.588 63.0862C62.6202 59.8804 62.7412 59.578 66.0074 55.8883C68.3059 53.2874 70.06 49.6583 70.06 47.4203C70.06 44.2146 66.4913 32.4198 64.7977 30.2423C62.8017 27.5205 59.9589 25.343 58.1443 24.9801C56.995 24.7986 56.0273 24.3752 56.0273 24.0728C56.0273 23.7704 55.241 23.5284 54.2127 23.5284C53.2449 23.5284 52.0957 23.1655 51.6723 22.7421C51.3094 22.2582 50.2811 22.0767 49.4948 22.1977C48.4665 22.3792 48.1036 22.2582 48.4061 21.8348C48.7085 21.3509 48.0431 21.1695 46.3495 21.2904C44.9584 21.3509 43.7486 21.5324 43.6277 21.5929ZM38.9098 23.2865C38.7283 23.4679 38.1839 23.5284 37.7605 23.347C37.2767 23.1655 37.4581 22.984 38.1235 22.984C38.7888 22.9236 39.1517 23.105 38.9098 23.2865ZM42.055 25.4035C42.2365 26.1293 42.176 26.1293 41.3897 25.464C40.7244 24.9196 40.301 24.8591 39.9985 25.343C39.8171 25.6454 39.2727 25.9478 38.9098 25.9478C38.4864 25.9478 38.7283 25.5244 39.3937 25.0406C40.7244 24.0123 41.6316 24.1333 42.055 25.4035ZM59.5355 36.049C61.8339 37.0168 61.9549 37.8031 60.0798 40.5249C56.6926 45.4848 55.6644 46.1501 54.3337 44.0936C53.9103 43.4283 53.1844 42.8839 52.6401 42.8839C52.1562 42.8839 51.9142 42.6419 52.0957 42.279C52.2771 41.9766 51.0674 40.3435 49.3738 38.6499C47.6802 37.0168 46.41 35.6256 46.4705 35.5651C46.5915 35.5651 47.8617 35.4441 49.2529 35.3231C50.7045 35.2022 52.0352 34.9602 52.2167 34.7788C52.7005 34.2949 57.1765 35.0812 59.5355 36.049ZM36.0065 40.7669C44.8374 43.8517 51.8537 48.993 53.8498 53.8923C54.999 56.5537 55.12 61.1506 54.1522 63.0257C53.6078 64.1144 53.6078 64.2354 54.2732 63.57C55.241 62.7232 56.2692 62.6023 55.7248 63.4491C55.5434 63.7515 55.6644 64.0539 55.9668 64.0539C56.3297 64.0539 56.6321 64.3564 56.6321 64.7193C56.6321 65.0217 56.3902 65.1427 56.0273 64.9612C55.7248 64.7798 55.4224 64.9007 55.4224 65.2032C55.4224 65.5661 55.7248 65.8685 56.0273 65.8685C56.3902 65.8685 56.6321 66.3524 56.6321 66.8968C56.6321 67.8041 56.7531 67.7436 57.5394 66.7153C58.3862 65.5661 58.3862 65.6266 58.4467 66.8968C58.4467 67.6831 58.7491 68.2879 59.112 68.2879C59.5355 68.2879 59.475 68.7718 58.9306 69.6186C58.0838 70.8283 56.6926 71.1308 57.0555 69.9815C57.1765 69.7396 56.8741 69.6791 56.4507 69.8001C56.0878 69.9211 55.1805 69.6791 54.5756 69.1952C53.6078 68.4694 53.5474 68.167 54.2732 67.2597C54.6966 66.6548 54.8176 66.3524 54.5756 66.5943C54.2732 66.8363 53.6683 66.7758 53.1844 66.4129C52.7005 65.929 52.3981 65.929 52.3981 66.3524C52.3981 66.7153 52.761 67.1387 53.1844 67.3202C53.5474 67.5016 52.9425 67.5016 51.7933 67.3807C50.644 67.1992 49.1319 67.0782 48.4665 67.0177C46.8334 66.8968 43.3252 67.7436 43.4462 68.2275C43.6277 68.8323 41.5107 72.5219 41.0268 72.5219C40.7848 72.5219 39.0912 71.1308 37.3371 69.4977C33.829 66.2314 32.1958 65.808 29.9579 67.6226L28.6272 68.7113L29.9579 70.9493C30.7442 72.159 31.2886 73.3083 31.1676 73.4292C30.7442 73.7922 27.2965 73.9736 26.6916 73.6107C26.3287 73.4292 24.5746 72.9453 22.6996 72.5824C18.647 71.7356 13.1428 68.5904 11.9936 66.4734C11.4492 65.3846 11.2677 63.2071 11.4492 58.7917C11.7516 51.8358 12.5984 49.8398 16.8929 45.7267C19.5543 43.1863 20.9455 43.0653 21.5503 45.3638C22.8205 50.0817 36.5508 65.4451 39.1517 65.0822C40.7244 64.8402 41.6316 63.3886 40.8453 62.4208C40.4824 61.9974 40.3614 61.3926 40.6034 61.0296C40.7848 60.7272 40.5429 60.4248 39.938 60.4248C39.2122 60.4248 39.0307 60.0619 39.2727 59.1546C39.4541 58.4287 39.4541 58.0658 39.2727 58.2473C38.7888 58.6707 37.2767 57.461 37.2767 56.6747C37.2767 56.3117 37.7001 56.2513 38.2444 56.4327C39.4541 56.9166 36.4299 52.9245 31.47 47.6623C26.0868 41.8556 25.9053 38.8313 31.0466 39.5572C32.4378 39.7386 34.6758 40.283 36.0065 40.7669ZM62.6807 71.9171C62.6807 72.2195 62.2573 72.3405 61.7734 72.159C61.2895 71.9171 60.8661 71.6751 60.8661 71.5542C60.8661 71.4332 61.2895 71.3122 61.7734 71.3122C62.2573 71.3122 62.6807 71.5542 62.6807 71.9171ZM62.0759 73.3687C62.0759 73.5502 61.8339 73.8526 61.471 74.0341C61.1686 74.2156 60.8661 74.0946 60.8661 73.7922C60.8661 73.4292 61.1686 73.1268 61.471 73.1268C61.8339 73.1268 62.0759 73.2478 62.0759 73.3687ZM53.5474 79.2359C54.6966 80.0827 55.1805 80.869 54.999 81.6553C54.8176 82.2602 54.3942 82.6231 54.0917 82.4416C53.7893 82.2602 53.003 82.5626 52.3376 83.1675C50.886 84.4981 50.5231 84.1352 50.1601 80.6875C49.7972 77.4818 50.7045 77.1189 53.5474 79.2359ZM57.358 84.7401C57.5394 89.3975 57.1765 94.5388 56.5112 95.7485C56.0878 96.4139 55.8458 97.2607 55.9063 97.5026C56.0273 97.805 55.7248 97.926 55.3014 97.805C54.878 97.6236 54.5756 96.9582 54.6966 96.2324C54.8176 95.5671 54.4546 94.1759 53.9708 93.2081C53.4869 92.2403 53.2449 91.2726 53.4264 91.0306C54.0312 90.4258 56.1482 90.6072 55.7248 91.2121C55.5434 91.5145 55.6039 91.9379 55.9063 92.1194C56.1482 92.2403 56.4507 91.8774 56.4507 91.2121C56.5716 90.0628 56.1482 89.8814 53.8498 90.0024C52.6401 90.1233 51.1884 88.0063 51.1884 86.2522C51.1884 85.5264 55.12 82.986 56.5112 82.865C56.9346 82.8045 57.2975 83.5909 57.358 84.7401ZM38.7888 84.6191C38.6073 84.9215 38.1839 85.224 37.821 85.224C37.5186 85.224 37.2767 84.9215 37.2767 84.6191C37.2767 84.2562 37.7001 84.0143 38.2444 84.0143C38.7283 84.0143 38.9703 84.2562 38.7888 84.6191ZM40.6034 85.224C40.7848 85.5264 40.6639 85.8288 40.3614 85.8288C39.9985 85.8288 39.6961 85.5264 39.6961 85.224C39.6961 84.8611 39.8171 84.6191 39.938 84.6191C40.1195 84.6191 40.4219 84.8611 40.6034 85.224ZM53.9103 98.5309C54.0917 98.8333 53.9708 99.1357 53.6683 99.1357C53.3054 99.1357 53.003 98.8333 53.003 98.5309C53.003 98.168 53.124 97.926 53.2449 97.926C53.4264 97.926 53.7288 98.168 53.9103 98.5309Z" fill="white"/>
<path d="M51.7933 80.3873C51.2489 80.7502 51.1884 80.9922 51.6118 80.9922C51.9748 80.9922 52.5191 80.6898 52.7006 80.3873C53.1845 79.6615 52.9425 79.6615 51.7933 80.3873Z" fill="white"/>
<path d="M94.4963 22.8025C94.1334 23.8308 97.2182 37.0772 98.3069 39.1942C98.6093 39.7386 98.6698 40.5249 98.4884 41.0088C98.3069 41.4926 98.4884 41.6741 98.9118 41.4322C99.7586 40.8878 99.7586 41.8556 98.9118 42.7024C98.4279 43.1862 98.4279 43.7306 98.9118 44.5774C99.2747 45.1823 99.3957 45.9081 99.1537 46.0896C98.9722 46.3315 99.1537 46.8759 99.5166 47.3598C100.182 48.1461 100.121 49.7792 99.2747 54.1342C99.0932 54.7995 98.4279 56.0092 97.7625 56.7956C96.4923 58.3077 96.1899 59.215 97.0972 59.215C97.3996 59.215 97.823 59.6384 98.0045 60.1828C98.3069 60.9086 98.065 61.0296 97.0972 60.7271C96.3109 60.4247 95.948 60.5457 96.1899 60.9086C96.3714 61.211 96.1294 61.6344 95.6455 61.8764C94.5568 62.2998 94.4963 64.0539 95.4641 66.1709C96.0084 67.3201 95.948 68.0459 95.4641 69.0742C94.9802 69.921 94.7987 72.4614 94.9802 76.151C95.4036 85.5868 99.3352 98.4098 102.238 99.9825C102.904 100.345 103.993 101.132 104.658 101.797C109.618 106.213 111.553 106.999 120.021 108.027C122.138 108.269 123.167 108.148 123.167 107.725C123.167 107.301 123.59 107.18 124.195 107.422C124.921 107.725 125.042 107.604 124.679 106.999C124.316 106.394 124.437 106.273 125.344 106.636C125.949 106.878 126.251 106.878 126.009 106.636C125.767 106.394 125.888 105.85 126.251 105.366C127.098 104.337 126.07 104.337 125.042 105.305C124.437 105.971 124.376 105.91 124.679 105.063C124.981 104.398 124.8 103.854 124.195 103.612C123.348 103.309 123.288 102.462 123.711 99.7405C123.771 99.5591 124.013 99.801 124.316 100.285C124.679 100.829 124.981 100.89 125.223 100.466C125.465 100.103 125.102 99.4986 124.437 99.1961C123.53 98.7123 123.227 98.7727 122.925 99.4986C122.501 100.587 121.352 100.043 121.352 98.7727C121.352 98.2284 121.957 97.9259 123.106 97.9259C124.134 97.9259 125.102 97.6235 125.344 97.2606C125.586 96.7767 125.344 96.7162 124.437 97.0187C123.771 97.2001 123.167 97.1396 123.167 96.8372C123.167 95.7485 125.586 95.567 126.13 96.5953C126.614 97.4421 126.856 97.5025 127.461 96.8372C128.126 96.2323 128.066 96.1114 127.219 96.1114C126.675 96.1114 126.191 95.688 126.191 95.2041C126.191 94.1758 124.618 93.9944 124.074 94.9621C123.832 95.3251 123.288 95.446 122.864 95.2646C122.32 95.0831 122.199 95.446 122.32 96.2928C122.441 97.0187 122.441 97.2606 122.199 96.8372C122.017 96.4743 121.171 96.1114 120.384 96.1114C119.598 96.1114 118.933 95.8694 118.933 95.567C118.933 95.2646 118.328 95.1436 117.602 95.3855C116.816 95.567 116.453 95.446 116.695 95.0831C116.937 94.7202 116.392 94.2968 115.424 94.1153C114.517 93.9339 113.005 93.0871 112.098 92.2403C110.344 90.6072 109.981 89.7604 111.311 90.2442C111.795 90.4257 112.279 90.1233 112.461 89.337C112.642 88.6716 113.065 88.3087 113.428 88.4902C113.731 88.7321 114.154 88.3692 114.396 87.7643C114.699 86.6151 116.453 86.5546 118.933 87.4619C120.747 88.1877 121.957 88.2482 121.957 87.6433C121.957 87.2804 122.38 87.0385 122.864 87.0385C123.348 87.0385 123.771 87.2804 123.771 87.5224C123.771 87.7643 124.316 88.0063 124.981 88.0063C125.647 88.0063 126.191 87.7643 126.191 87.5224C126.191 87.2804 126.493 87.0385 126.856 87.0385C127.159 87.0385 127.28 87.2804 127.098 87.6433C126.554 88.4902 127.159 88.3692 129.215 87.3409C130.243 86.7965 131.03 86.1917 131.03 85.8893C131.03 85.5868 131.514 85.4659 132.179 85.6473C132.784 85.8288 133.51 85.6473 133.691 85.2844C133.933 84.9215 133.752 84.74 133.268 84.982C132.784 85.1634 131.937 84.861 131.393 84.3166C130.485 83.4093 130.425 83.4093 130.425 84.5586C130.425 85.5263 130.062 85.8288 128.792 85.8288C127.764 85.8288 127.401 85.6473 127.824 85.3449C128.247 85.1029 128.429 84.3166 128.247 83.5303C127.884 82.2601 126.312 81.4133 124.134 81.3528C122.743 81.2923 122.078 79.7802 123.409 79.7802C123.953 79.7802 124.376 79.4778 124.376 79.1148C124.376 78.8124 124.679 78.6914 125.102 78.9334C125.465 79.1753 125.586 79.1148 125.344 78.6914C125.163 78.3285 125.405 77.7842 125.949 77.4817C126.614 77.1188 126.735 76.8164 126.251 76.5139C125.888 76.272 125.586 76.3325 125.586 76.6349C125.586 76.9374 124.739 76.9978 123.711 76.8769C122.32 76.6954 121.896 76.8164 122.199 77.3003C122.441 77.7237 123.227 77.8446 123.953 77.6632C125.102 77.3608 125.102 77.4212 123.771 78.2076C121.836 79.4173 121.292 79.4173 121.715 78.268C121.957 77.7842 121.775 77.3608 121.413 77.3608C121.05 77.3608 120.747 77.1188 120.747 76.8769C120.747 76.393 121.594 76.151 123.892 76.0905C124.497 76.0905 125.102 75.8486 125.284 75.5462C125.465 75.2437 126.07 75.1833 126.675 75.3647C127.522 75.6671 127.582 75.5462 126.917 74.8808C126.372 74.276 125.647 74.2155 123.771 74.7599C122.441 75.0623 121.352 75.1833 121.352 74.9413C121.352 74.4574 118.993 73.5501 118.207 73.6711C117.904 73.7316 117.723 73.3687 117.723 72.8848C117.723 72.4009 118.449 71.8565 119.416 71.6751C125.888 70.4049 129.397 70.042 133.51 70.3444C136.05 70.5259 138.288 70.4654 138.409 70.1629C138.53 69.8605 139.256 69.921 140.103 70.2234C141.191 70.6468 141.373 70.8888 140.768 71.2517C140.224 71.6146 140.466 71.8565 141.554 72.159C144.518 72.8848 145.365 78.1471 143.187 82.0787C142.462 83.4093 142.522 83.4093 143.671 82.6835C144.397 82.2601 144.942 81.5948 144.942 81.1714C144.942 80.748 145.244 80.385 145.607 80.385C145.909 80.385 146.03 80.748 145.788 81.1109C145.546 81.5948 145.607 81.7157 145.909 81.4133C146.212 81.1109 146.514 80.627 146.514 80.3246C146.756 78.51 146.877 78.389 147.361 79.4778C147.845 80.627 147.905 80.627 147.905 79.2963C147.966 78.5705 147.663 77.9656 147.3 77.9656C146.998 77.9656 146.877 77.6632 147.059 77.3608C147.3 76.9978 147.724 76.9374 148.087 77.1188C148.51 77.4212 148.631 77.1793 148.389 76.5744C148.208 76.0301 148.329 75.4252 148.692 75.1833C149.115 74.9413 149.176 73.4292 148.934 70.8283C148.571 67.683 148.147 66.4733 146.575 64.5982C145.486 63.328 144.276 62.2393 143.853 62.2393C143.429 62.2393 143.248 61.9369 143.429 61.6344C143.611 61.2715 143.429 61.0296 142.945 61.0296C142.462 61.0296 141.857 60.6062 141.675 60.0618C141.433 59.5174 140.949 59.215 140.405 59.4569C139.921 59.6384 139.074 60.0013 138.59 60.1828C137.925 60.4247 137.683 60.1828 137.683 59.2755C137.683 57.8843 136.776 57.5214 136.292 58.7311C136.111 59.1545 135.929 58.9126 135.929 58.2472C135.869 56.6141 139.256 48.0856 140.103 47.8437C140.405 47.7227 140.707 47.2388 140.707 46.6944C140.707 46.0896 141.07 45.9686 141.917 46.2105C142.704 46.4525 143.127 46.3315 143.127 45.8476C143.127 45.4242 143.913 45.8476 144.942 46.8154C146.635 48.4485 148.329 51.9567 148.692 54.6786C148.813 55.3439 149.115 56.0697 149.478 56.3117C149.78 56.5536 150.083 58.4287 150.143 60.5457C150.143 62.6627 150.325 64.2353 150.567 64.1748C150.809 64.0539 151.534 63.8119 152.2 63.6305C153.107 63.3885 153.41 62.7837 153.47 61.0901C153.53 59.8803 153.651 57.9448 153.772 56.7956C153.954 54.1947 152.502 46.9364 151.293 44.4564C150.809 43.4887 150.385 42.3999 150.385 41.9765C150.385 40.8273 146.151 35.565 145.486 35.9884C145.183 36.1699 144.095 34.5368 143.066 32.4198C140.768 27.4599 139.377 26.8551 136.353 29.456C135.748 29.9398 135.264 30.1213 135.264 29.7584C135.264 29.456 134.417 29.214 133.449 29.2745C131.998 29.335 131.635 29.1535 131.937 28.4882C132.179 27.7624 132.118 27.7019 131.332 28.3672C130.546 29.0326 130.485 28.9721 130.788 28.1253C131.03 27.5204 130.848 27.1575 130.243 27.1575C129.699 27.1575 128.852 26.976 128.247 26.7341C127.582 26.4922 127.34 26.5526 127.643 27.0365C127.824 27.3994 127.764 27.8228 127.401 28.0648C127.038 28.2462 126.796 27.8228 126.735 27.0365C126.735 26.2502 126.554 26.0083 126.372 26.3712C126.251 26.7946 125.707 27.1575 125.223 27.1575C124.739 27.1575 124.376 26.7946 124.376 26.3712C124.376 25.8873 124.134 25.9478 123.711 26.5526C123.227 27.2785 122.985 27.2785 122.743 26.6736C122.501 26.0688 122.259 26.0688 121.594 26.6131C120.989 27.097 120.505 27.097 119.961 26.6736C118.691 25.6453 114.82 26.1292 113.731 27.4599C112.824 28.6696 112.824 28.6696 113.065 27.339C113.368 26.1292 113.186 26.0083 111.795 26.3107C110.888 26.4922 109.073 27.0365 107.743 27.5204C106.412 27.9438 104.537 28.4277 103.569 28.4882C101.997 28.6696 101.815 28.4277 100.847 25.3429C99.8795 22.0767 99.8191 22.0162 97.3391 21.8347C95.3431 21.7138 94.7987 21.8952 94.4963 22.8025ZM116.453 29.1535C116.332 29.214 115.727 29.6979 115.122 30.1213C114.215 30.8471 114.094 30.8471 114.457 29.9398C114.638 29.3955 115.243 28.9721 115.787 28.9721C116.271 28.9721 116.574 29.0326 116.453 29.1535ZM124.8 41.9765C125.526 43.6096 125.344 43.8516 124.195 42.8838C123.771 42.5209 122.925 41.8556 122.259 41.3717C121.11 40.5249 121.11 40.5249 122.562 40.4644C123.59 40.4644 124.316 40.9483 124.8 41.9765ZM149.659 44.396C149.478 44.5774 149.115 44.275 148.934 43.6701C148.571 42.8233 148.631 42.7628 149.236 43.3072C149.659 43.7306 149.841 44.2145 149.659 44.396ZM109.739 45.4847C110.827 48.4485 112.763 49.9607 116.816 51.0494C121.05 52.2591 125.163 52.2591 130.122 51.0494C132.118 50.626 133.873 50.3236 134.115 50.505C134.296 50.626 134.417 52.1382 134.296 53.8922C134.175 56.977 134.054 57.098 132.421 57.098C130.606 57.1585 128.005 58.9731 128.005 60.2433C128.005 60.6667 127.764 61.0296 127.401 61.0296C127.098 61.0296 126.796 60.3642 126.796 59.5174C126.796 58.5497 127.159 58.0053 127.703 58.0053C129.155 58.0053 128.792 57.098 127.28 56.856C123.348 56.2512 115.424 56.977 113.126 58.1263C110.888 59.1545 110.465 61.0296 112.4 61.0901C113.428 61.1505 113.489 61.2715 112.763 61.453C112.158 61.5739 111.674 62.1183 111.674 62.5417C111.674 63.0256 111.372 63.57 111.009 63.8119C110.465 64.1144 110.404 63.7514 110.707 62.6022C110.888 61.7554 110.827 61.0296 110.525 61.0296C110.283 61.0296 109.86 61.8159 109.678 62.8441C109.376 64.1144 108.952 64.6587 108.106 64.6587C106.472 64.6587 102.904 67.7435 103.872 68.2879C104.355 68.6508 104.235 68.9532 103.448 69.4371C102.359 70.042 102.42 70.042 103.69 70.1024C104.839 70.1024 104.96 70.2839 104.476 71.2517C104.114 71.8565 103.993 72.5219 104.114 72.7638C104.295 72.9453 104.235 73.0058 103.993 72.8243C103.811 72.6429 103.267 72.8243 102.783 73.1872C102.238 73.7316 101.997 73.6711 101.997 73.1872C101.997 72.8243 102.238 72.5219 102.541 72.5219C102.843 72.5219 103.206 72.0985 103.388 71.6751C103.63 71.0702 103.448 70.8888 102.843 71.1307C102.057 71.4331 101.997 70.5259 102.118 64.7192C102.238 59.336 102.48 58.0053 103.146 58.0053C103.811 58.0053 103.751 57.7633 102.904 57.219C101.876 56.4326 101.876 56.3117 103.085 55.102C103.811 54.3761 104.416 53.3479 104.416 52.8035C104.416 52.2591 105.021 50.505 105.686 48.9929C106.412 47.4807 107.259 45.6057 107.622 44.8194C108.469 43.0048 108.892 43.1258 109.739 45.4847ZM148.571 44.3355C148.571 44.5169 148.329 44.8194 147.966 45.0008C147.663 45.1823 147.361 45.0613 147.361 44.7589C147.361 44.396 147.663 44.0935 147.966 44.0935C148.329 44.0935 148.571 44.2145 148.571 44.3355ZM152.139 51.4123C151.172 52.0172 150.748 51.6543 151.293 50.8075C151.474 50.4445 151.958 50.3236 152.321 50.505C152.684 50.747 152.623 51.0494 152.139 51.4123ZM122.864 58.0053C122.683 58.3077 122.017 58.6101 121.473 58.5497C120.626 58.5497 120.687 58.4287 121.654 58.0053C123.288 57.3399 123.288 57.3399 122.864 58.0053ZM132.058 58.9731C131.877 59.1545 131.332 59.215 130.909 59.0335C130.425 58.8521 130.606 58.6706 131.272 58.6706C131.937 58.6101 132.3 58.7916 132.058 58.9731ZM130.727 60.4247C130.909 60.7271 130.848 61.0296 130.485 61.0296C130.183 61.0296 129.699 60.7271 129.518 60.4247C129.336 60.0618 129.397 59.8199 129.76 59.8199C130.062 59.8199 130.546 60.0618 130.727 60.4247ZM97.5811 63.2071C97.3996 63.3885 96.8552 63.449 96.4318 63.2675C95.948 63.0861 96.1294 62.9046 96.7948 62.9046C97.4601 62.8441 97.823 63.0256 97.5811 63.2071ZM109.255 81.4133C107.864 85.4659 105.021 88.1877 105.021 85.3449C105.021 83.5303 108.65 77.7237 109.376 78.4495C109.799 78.8729 109.739 79.7802 109.255 81.4133ZM125.586 85.8288C125.586 86.4941 125.344 87.0385 125.042 87.0385C124.739 87.0385 124.618 86.4941 124.8 85.8288C124.981 85.1634 125.223 84.6191 125.344 84.6191C125.465 84.6191 125.586 85.1634 125.586 85.8288ZM116.816 97.2001C116.634 97.3816 116.15 97.2001 115.727 96.7767C115.182 96.1719 115.243 96.1114 116.09 96.4743C116.695 96.6557 116.997 97.0187 116.816 97.2001ZM119.598 97.4421C119.598 98.0469 119.719 98.0469 119.961 97.4421C120.082 97.0791 120.505 96.7162 120.868 96.7162C121.231 96.7162 121.05 97.2606 120.445 97.9259C119.84 98.5913 119.658 99.1357 120.021 99.1357C120.445 99.1357 120.747 99.4381 120.747 99.801C120.747 100.285 120.505 100.285 119.9 99.801C118.872 98.9542 118.207 96.7162 118.993 96.7162C119.295 96.7162 119.537 97.0791 119.598 97.4421ZM116.513 98.1679C116.513 99.0752 115.666 100.285 115.243 99.9825C114.336 99.4381 114.638 97.9259 115.606 97.9259C116.09 97.9259 116.513 98.0469 116.513 98.1679ZM122.743 102.16C122.562 102.946 121.957 103.37 121.11 103.309C120.082 103.249 120.082 103.188 120.929 102.946C122.138 102.644 122.259 101.797 121.231 101.374C120.808 101.192 121.05 101.011 121.775 101.011C122.743 100.95 122.985 101.192 122.743 102.16ZM118.63 103.37C118.812 103.672 118.691 103.975 118.388 103.975C118.025 103.975 117.723 103.672 117.723 103.37C117.723 103.007 117.844 102.765 117.965 102.765C118.146 102.765 118.449 103.007 118.63 103.37Z" fill="white"/>
<path d="M33.6475 23.528C33.6475 23.8304 33.9499 24.1328 34.2523 24.1328C34.6152 24.1328 34.8572 23.8304 34.8572 23.528C34.8572 23.165 34.6152 22.9231 34.2523 22.9231C33.9499 22.9231 33.6475 23.165 33.6475 23.528Z" fill="white"/>
<path d="M12.7796 29.5787C12.9611 29.8812 13.2635 30.1836 13.4449 30.1836C13.5659 30.1836 13.6869 29.8812 13.6869 29.5787C13.6869 29.2158 13.3845 28.9739 13.0215 28.9739C12.7191 28.9739 12.5981 29.2158 12.7796 29.5787Z" fill="white"/>
<path d="M98.7299 48.6303C98.1855 50.2029 98.3065 50.5658 99.0323 49.3561C99.3953 48.7512 99.5767 48.0859 99.3953 47.9649C99.2743 47.7835 98.9719 48.0859 98.7299 48.6303Z" fill="white"/>
<path d="M97.6411 52.9865C97.9435 54.2567 98.0645 54.3777 98.2459 53.5309C98.3669 52.926 98.2459 52.2002 97.883 51.8373C97.5201 51.4744 97.4596 51.8373 97.6411 52.9865Z" fill="white"/>
<path d="M96.3706 53.7122C96.1287 54.7405 96.1892 54.9824 96.6731 54.4985C96.9755 54.1961 97.157 53.5308 97.036 53.1074C96.8545 52.6235 96.6126 52.9259 96.3706 53.7122Z" fill="white"/>
<path d="M148.934 65.2643C149.358 66.958 149.66 67.3814 150.023 67.0184C150.144 66.8975 149.902 66.1112 149.418 65.2643L148.511 63.7522L148.934 65.2643Z" fill="white"/>
<path d="M152.865 66.2328C152.865 66.8982 153.047 67.0796 153.228 66.5958C153.41 66.1724 153.349 65.628 153.168 65.4465C152.986 65.2046 152.805 65.5675 152.865 66.2328Z" fill="white"/>
<path d="M176.697 67.6842C176.516 67.9866 176.758 68.2891 177.302 68.2891C177.847 68.2891 178.088 67.9866 177.907 67.6842C177.726 67.3213 177.423 67.0793 177.302 67.0793C177.181 67.0793 176.879 67.3213 176.697 67.6842Z" fill="white"/>
<path d="M133.812 73.5519C133.63 73.9753 133.63 74.7011 133.812 75.185C134.114 75.9108 134.477 75.9713 135.626 75.4269C136.655 74.9431 136.897 74.5197 136.473 74.0358C136.171 73.6124 135.989 73.189 136.171 73.068C136.292 72.8865 135.868 72.7656 135.264 72.7656C134.598 72.7656 133.933 73.1285 133.812 73.5519Z" fill="white"/>
<path d="M128.006 75.2451C128.006 75.7289 128.308 76.1523 128.611 76.1523C128.974 76.1523 129.216 75.7289 129.216 75.2451C129.216 74.7612 128.974 74.3378 128.611 74.3378C128.308 74.3378 128.006 74.7612 128.006 75.2451Z" fill="white"/>
<path d="M130.183 75.2442C130.425 75.849 130.97 76.0305 131.635 75.849C132.421 75.6071 132.845 75.9095 133.147 76.7563C133.329 77.4216 133.812 77.966 134.115 77.966C134.478 77.966 134.538 78.2684 134.357 78.5709C134.115 78.9338 134.599 78.9338 135.506 78.5104C137.2 77.7241 137.018 75.9095 135.204 76.4539C134.478 76.6958 133.933 76.3934 133.45 75.5466C132.663 74.0949 129.639 73.7925 130.183 75.2442Z" fill="white"/>
<path d="M127.703 77.3619C127.885 77.6644 128.187 77.9668 128.369 77.9668C128.49 77.9668 128.611 77.6644 128.611 77.3619C128.611 76.999 128.308 76.7571 127.945 76.7571C127.643 76.7571 127.522 76.999 127.703 77.3619Z" fill="white"/>
<path d="M158.188 78.3902C157.402 79.358 157.462 79.4184 158.43 78.6321C158.975 78.2087 159.458 77.7248 159.458 77.6039C159.458 77.12 158.975 77.4224 158.188 78.3902Z" fill="white"/>
<path d="M75.564 83.1087C73.9309 83.774 73.7494 84.6208 75.1406 84.6208C75.8059 84.6208 76.0479 84.9837 75.8059 85.8305C75.443 87.2822 76.3503 88.0685 78.7093 88.4314C80.2214 88.6129 80.1004 88.6734 77.9834 88.8548C74.4148 89.0968 74.3543 89.0968 73.7494 89.7016C73.447 90.004 73.6284 90.0645 74.1123 89.7621C74.7777 89.3992 74.8986 89.5806 74.5962 90.6089C74.2938 91.8791 74.3543 91.9396 75.322 91.0323C76.8342 89.6411 77.3786 89.8226 76.9552 91.5767C76.7132 92.484 76.8342 93.0888 77.1971 93.0888C77.56 93.0888 77.681 92.7864 77.4995 92.484C77.3181 92.1211 77.3786 91.8791 77.7415 91.8791C78.0439 91.8791 78.4068 92.1815 78.5278 92.5445C78.6488 92.9679 79.2536 92.9679 80.4029 92.5445C81.3101 92.1815 82.036 92.1211 82.036 92.363C82.036 92.6049 82.9433 93.3308 84.0925 93.9356C86.149 95.0244 86.7539 96.0526 87.2378 99.3189C87.3587 100.287 87.9636 101.678 88.508 102.525C89.4153 103.795 89.9596 103.976 91.8952 103.734C96.3106 103.25 96.6131 102.162 94.6775 94.601C94.0122 91.9396 93.2863 89.0968 93.1049 88.25C92.6815 86.4354 90.5645 83.895 89.8387 84.3789C89.5362 84.5603 89.2943 84.3789 89.2943 84.0764C89.2943 83.7135 88.7499 83.4111 88.145 83.4111C87.4797 83.4111 86.8144 83.1691 86.5724 82.8062C86.149 82.0804 77.3181 82.3223 75.564 83.1087ZM81.7335 87.1007C81.4916 87.4032 80.2214 87.5846 78.8302 87.5846C76.5318 87.5241 76.4713 87.4636 78.1044 87.1007C80.9472 86.4959 82.0965 86.4354 81.7335 87.1007ZM80.2214 90.3065C80.2214 90.4879 79.9795 90.7904 79.6165 90.9718C79.3141 91.1533 79.0117 91.0323 79.0117 90.7299C79.0117 90.367 79.3141 90.0645 79.6165 90.0645C79.9795 90.0645 80.2214 90.1855 80.2214 90.3065Z" fill="white"/>
<path d="M71.1484 83.4716C71.1484 83.7741 71.4509 83.895 71.7533 83.7136C72.1162 83.5321 72.3582 83.2297 72.3582 83.0482C72.3582 82.9273 72.1162 82.8063 71.7533 82.8063C71.4509 82.8063 71.1484 83.1087 71.1484 83.4716Z" fill="white"/>
<path d="M68.3057 84.3193C68.3057 84.8032 68.5476 85.2266 68.85 85.2266C69.092 85.2266 69.3339 84.9846 69.3339 84.6822C69.3339 84.3193 69.092 83.9564 68.85 83.7749C68.5476 83.5934 68.3057 83.8354 68.3057 84.3193Z" fill="white"/>
<path d="M72.4191 86.1918C72.4191 86.8572 72.6005 87.0386 72.782 86.5547C72.9635 86.1313 72.903 85.587 72.7215 85.4055C72.5401 85.1636 72.3586 85.5265 72.4191 86.1918Z" fill="white"/>
<path d="M112.884 90.0631C112.884 90.3655 113.186 90.668 113.549 90.668C113.852 90.668 113.973 90.3655 113.791 90.0631C113.61 89.7002 113.307 89.4583 113.126 89.4583C113.005 89.4583 112.884 89.7002 112.884 90.0631Z" fill="white"/>
<path d="M128.549 93.6926C127.763 94.2975 127.461 94.8419 127.884 94.9023C128.247 94.9023 128.61 94.5999 128.61 94.237C128.61 93.8741 129.033 93.6926 129.517 93.9346C130.062 94.116 130.425 93.9346 130.425 93.3902C130.425 92.241 130.243 92.241 128.549 93.6926Z" fill="white"/>
<path d="M46.6517 97.3229C46.4702 97.6253 46.5912 97.9277 46.8936 97.9277C47.2565 97.9277 47.559 97.6253 47.559 97.3229C47.559 96.96 47.438 96.718 47.317 96.718C47.1356 96.718 46.8331 96.96 46.6517 97.3229Z" fill="white"/>
<path d="M48.4671 101.557C48.2856 101.86 48.4066 102.162 48.709 102.162C49.072 102.162 49.3744 101.86 49.3744 101.557C49.3744 101.194 49.2534 100.952 49.1324 100.952C48.951 100.952 48.6486 101.194 48.4671 101.557Z" fill="white"/>
<path d="M125.586 101.557C125.586 101.86 125.888 102.162 126.191 102.162C126.554 102.162 126.796 101.86 126.796 101.557C126.796 101.194 126.554 100.952 126.191 100.952C125.888 100.952 125.586 101.194 125.586 101.557Z" fill="white"/>
<path d="M127.4 104.581C127.4 104.944 127.824 105.186 128.308 105.186C128.792 105.186 129.215 105.065 129.215 104.944C129.215 104.823 128.792 104.581 128.308 104.339C127.824 104.157 127.4 104.278 127.4 104.581Z" fill="white"/>
<path d="M242.411 82.776C240.124 83.7787 237.789 84.28 235.408 84.28C232.933 84.28 230.724 83.7317 228.781 82.635C226.87 81.5384 225.381 80.0344 224.316 78.123C223.251 76.2117 222.718 74.0654 222.718 71.684C222.718 70.7127 222.812 69.71 223 68.676C223.533 65.856 224.723 63.2554 226.572 60.874C228.421 58.4614 230.661 56.5657 233.293 55.187C235.956 53.777 238.682 53.072 241.471 53.072C243.664 53.072 245.67 53.5264 247.487 54.435C249.336 55.3124 250.824 56.5657 251.952 58.195L248.521 60.78C247.644 59.558 246.531 58.618 245.184 57.96C243.837 57.302 242.364 56.973 240.766 56.973C238.667 56.973 236.63 57.5057 234.656 58.571C232.682 59.605 230.99 61.0307 229.58 62.848C228.201 64.634 227.308 66.5767 226.901 68.676C226.744 69.5534 226.666 70.3054 226.666 70.932C226.666 72.718 227.058 74.3317 227.841 75.773C228.656 77.183 229.784 78.311 231.225 79.157C232.698 79.9717 234.343 80.379 236.16 80.379C237.915 80.379 239.654 80.003 241.377 79.251C243.132 78.4677 244.683 77.3867 246.03 76.008L248.615 78.452C246.766 80.332 244.698 81.7734 242.411 82.776ZM272.989 83.998L275.527 70.65H260.534L257.949 83.998H254.001L259.97 53.401H263.918L261.333 66.702H276.279L278.864 53.401H282.859L276.89 83.998H272.989ZM304.946 83.998H285.394L291.363 53.401H310.915L310.116 57.349H294.465L292.679 66.702H304.664L303.865 70.65H291.88L290.094 80.097H305.745L304.946 83.998ZM316.986 83.998H312.991L318.96 53.401H322.955L316.986 83.998ZM350.125 83.998H345.049L337.717 72.013L325.873 84.75L331.983 53.401H335.931L332.171 72.718L350.078 53.401H354.919L340.725 68.676L350.125 83.998ZM373.1 70.603H355.804L356.556 66.702H373.852L373.1 70.603ZM402.037 83.998H396.961L389.629 72.013L377.785 84.75L383.895 53.401H387.843L384.083 72.718L401.99 53.401H406.831L392.637 68.676L402.037 83.998ZM427.455 82.212C424.823 83.5907 422.113 84.28 419.324 84.28C416.849 84.28 414.64 83.7317 412.697 82.635C410.786 81.5384 409.282 80.0344 408.185 78.123C407.12 76.2117 406.587 74.0654 406.587 71.684C406.587 70.7127 406.681 69.71 406.869 68.676C407.402 65.856 408.592 63.2554 410.441 60.874C412.29 58.4927 414.53 56.6127 417.162 55.234C419.825 53.824 422.567 53.119 425.387 53.119C427.831 53.119 430.009 53.6674 431.92 54.764C433.863 55.8294 435.367 57.3177 436.432 59.229C437.529 61.1404 438.077 63.2867 438.077 65.668C438.077 66.6394 437.983 67.642 437.795 68.676C437.262 71.496 436.072 74.1124 434.223 76.525C432.374 78.9064 430.118 80.802 427.455 82.212ZM429.523 58.242C428.082 57.4274 426.452 57.02 424.635 57.02C422.536 57.02 420.499 57.5527 418.525 58.618C416.551 59.652 414.859 61.062 413.449 62.848C412.07 64.634 411.177 66.5767 410.77 68.676C410.613 69.5534 410.535 70.321 410.535 70.979C410.535 72.765 410.942 74.3787 411.757 75.82C412.572 77.23 413.7 78.3424 415.141 79.157C416.582 79.9717 418.227 80.379 420.076 80.379C422.144 80.379 424.165 79.862 426.139 78.828C428.113 77.7627 429.789 76.337 431.168 74.551C432.578 72.765 433.487 70.8067 433.894 68.676C434.051 67.7987 434.129 67.0467 434.129 66.42C434.129 64.634 433.722 63.036 432.907 61.626C432.124 60.1847 430.996 59.0567 429.523 58.242ZM464.906 84.75L449.302 63.177L445.213 83.998H441.312L447.375 52.931L463.026 74.41L467.115 53.401H471.016L464.906 84.75ZM493.084 83.998H473.532L479.501 53.401H499.053L498.254 57.349H482.603L480.817 66.702H492.802L492.003 70.65H480.018L478.232 80.097H493.883L493.084 83.998Z" fill="white"/>
</svg>
