<svg width="440" height="285" viewBox="0 0 440 285" fill="none" xmlns="http://www.w3.org/2000/svg">
<path d="M422.971 4.13495C421.771 6.93495 420.838 17.4683 420.305 33.8683C419.771 47.7349 419.105 59.3349 418.838 59.7349C418.438 60.0016 418.838 61.0683 419.638 62.0016C421.505 64.2683 422.571 99.4683 420.838 100.535C420.038 100.935 419.505 102.535 419.505 104.002C419.505 105.335 418.971 106.535 418.171 106.535C417.505 106.535 416.971 106.935 416.971 107.468C417.505 110.668 416.705 113.202 415.371 112.402C414.571 111.868 414.171 109.868 414.705 107.335C415.238 104.402 415.105 103.868 414.171 105.335C413.505 106.535 412.705 112.268 412.305 118.268C411.771 128.402 410.038 133.202 406.705 133.202C405.238 133.202 402.305 137.735 402.305 139.868C402.305 141.202 402.705 140.935 403.505 139.202C404.438 137.068 404.705 137.335 404.705 141.202C404.838 144.535 404.438 145.335 403.505 143.868C402.571 142.268 402.171 142.402 401.371 144.535C399.905 148.535 392.571 154.802 391.371 153.068C390.705 152.002 390.305 152.002 389.638 153.068C389.105 153.868 389.105 154.535 389.771 154.668C390.305 154.668 389.638 155.202 388.171 155.868C386.705 156.535 383.371 156.802 380.838 156.402C377.505 156.002 376.971 156.135 378.705 156.935C380.971 158.002 381.105 158.135 379.105 158.935C377.638 159.468 377.238 160.535 377.771 162.135C378.705 164.668 378.438 164.535 375.505 160.668C373.905 158.535 373.905 158.268 375.371 159.202C376.705 159.868 376.971 159.735 376.305 158.802C374.705 156.135 370.171 157.068 368.971 160.135C368.305 161.868 368.171 163.735 368.571 164.402C368.838 165.068 368.438 165.202 367.371 164.935C366.305 164.535 364.305 165.202 362.971 166.402C361.105 168.002 360.305 168.135 359.905 166.802C359.505 166.002 358.705 165.468 358.038 166.002C357.371 166.402 357.371 167.868 358.305 169.335C359.105 170.935 359.238 172.535 358.705 172.935C358.171 173.468 357.505 173.068 357.238 172.135C356.838 171.335 356.038 170.535 355.238 170.535C354.438 170.535 354.171 171.335 354.571 172.268C354.838 173.068 352.838 175.335 349.905 177.202C347.105 179.068 345.238 180.668 345.905 180.935C346.705 181.202 346.971 182.402 346.571 183.868C346.171 185.335 345.105 186.002 344.038 185.602C342.838 185.202 342.038 185.868 341.905 187.335C341.905 188.802 341.638 190.668 341.638 191.735C341.505 192.802 340.571 194.002 339.505 194.402C338.305 194.802 337.505 196.535 337.638 198.135C337.771 199.868 336.971 201.202 336.038 201.202C334.705 201.202 334.571 202.002 335.505 204.535C336.171 206.268 336.305 208.135 335.638 208.402C335.105 208.802 333.771 206.668 332.838 203.735C330.705 197.335 327.905 195.735 325.371 199.202C324.305 200.535 323.505 200.935 323.505 200.135C323.505 199.068 322.305 198.802 320.305 199.335C317.638 200.002 316.971 199.335 315.771 195.868C314.971 193.602 314.571 190.802 314.971 189.468C315.505 187.735 315.371 187.602 314.438 188.935C313.638 190.268 312.438 188.535 310.171 182.668C308.571 178.135 306.571 174.535 305.905 174.535C305.238 174.535 304.971 174.002 305.505 173.335C305.905 172.668 305.638 171.735 304.971 171.335C304.171 170.802 304.171 168.935 304.838 166.535C305.505 164.268 305.505 162.535 304.838 162.535C303.105 162.535 302.038 166.802 302.705 171.602C303.105 175.068 302.838 175.602 301.371 174.402C299.905 173.202 299.371 173.468 298.705 175.068C298.305 176.268 297.371 176.802 296.705 176.535C296.171 176.135 295.771 177.602 295.905 179.735C296.038 181.868 296.705 183.335 297.371 182.802C298.038 182.402 298.305 183.068 297.771 184.268C297.371 185.602 297.505 186.535 298.171 186.535C298.971 186.535 299.505 187.202 299.505 188.002C299.505 188.802 300.971 192.935 302.705 197.068C304.571 201.202 307.638 208.668 309.505 213.735C311.505 218.802 313.638 224.002 314.171 225.068C322.438 241.068 323.505 244.002 322.705 249.068C321.905 254.402 324.838 265.335 330.438 278.135C333.505 285.068 333.771 285.202 339.371 284.002C343.771 283.202 344.038 282.802 344.038 277.202C344.171 272.135 344.705 270.935 347.638 269.602L351.105 267.868L349.371 260.268C348.438 256.002 346.438 248.935 345.105 244.535C342.971 238.002 342.705 235.068 343.638 228.002C344.438 222.668 345.638 218.935 347.105 217.868C348.305 216.935 348.838 215.602 348.438 214.935C347.905 214.135 348.438 213.068 349.638 212.668C350.838 212.135 351.505 211.468 351.105 211.068C350.705 210.535 350.838 209.602 351.638 208.668C354.571 205.202 359.371 197.202 358.571 197.202C358.038 197.202 359.771 195.735 362.305 193.868L366.838 190.402L370.571 205.468C372.705 213.735 374.838 222.402 375.371 224.802C376.971 230.935 381.238 237.735 383.905 238.268C386.305 238.802 394.838 233.468 393.638 232.268C392.971 231.468 394.571 229.202 399.105 224.668C400.705 223.068 403.105 218.002 404.305 213.468C406.438 205.602 406.438 204.402 404.305 191.468C403.105 184.002 400.971 174.802 399.771 171.202C398.571 167.468 397.505 163.868 397.505 162.935C397.505 162.002 396.438 160.535 394.971 159.468C392.838 157.868 392.705 157.602 394.838 155.868C396.038 154.935 396.838 154.668 396.705 155.335C395.905 160.002 398.838 160.668 403.238 156.802C404.571 155.602 406.438 154.535 407.371 154.535C408.305 154.535 410.971 153.202 413.238 151.602C416.038 149.602 417.505 149.202 417.905 150.268C418.571 152.402 423.505 149.735 423.505 147.202C423.505 146.135 424.438 144.802 425.771 144.135C427.505 143.068 427.771 141.868 426.705 136.402C424.571 123.735 425.638 97.3349 428.438 96.2683C430.838 95.3349 430.571 93.2016 428.171 93.2016C427.105 93.2016 426.171 92.5349 426.171 91.7349C426.171 90.9349 427.105 90.5349 428.171 91.0683C429.238 91.4683 430.305 91.2016 430.305 90.5349C430.438 89.7349 430.571 88.8016 430.705 88.1349C432.038 82.9349 433.238 72.9349 434.838 53.2016C435.905 40.4016 437.371 26.0016 438.305 21.2016C439.638 14.0016 439.638 11.4683 438.038 6.53495C436.305 0.801613 435.905 0.534946 430.438 0.134946C425.105 -0.265054 424.705 0.00161276 422.971 4.13495ZM407.105 147.868C406.571 151.468 404.838 152.935 404.838 149.602C404.838 147.202 405.905 145.202 407.105 145.202C407.238 145.202 407.371 146.402 407.105 147.868ZM366.705 169.868C366.171 170.935 365.105 171.868 364.038 171.868C361.771 171.868 361.638 169.602 363.905 168.802C366.838 167.602 367.505 167.868 366.705 169.868ZM373.771 168.668C373.371 169.068 372.171 169.202 371.238 168.802C370.171 168.402 370.571 168.002 372.038 168.002C373.505 167.868 374.305 168.268 373.771 168.668ZM357.771 177.202C354.038 180.268 352.838 180.535 352.838 178.402C352.838 177.735 353.371 177.335 354.038 177.735C354.705 178.135 355.505 177.602 356.038 176.535C356.438 175.468 357.771 174.535 358.971 174.535C360.705 174.535 360.438 175.202 357.771 177.202ZM368.971 178.135C369.771 180.535 369.638 181.202 368.038 181.202C366.571 181.202 366.305 180.402 366.838 178.668C367.371 176.935 366.838 175.868 365.238 175.335C363.105 174.802 363.105 174.668 365.371 174.935C366.705 175.068 368.305 176.535 368.971 178.135ZM362.171 183.068C362.171 183.335 361.105 184.402 359.905 185.335C357.771 187.068 357.638 186.935 359.371 184.802C361.105 182.668 362.171 182.002 362.171 183.068ZM368.171 183.735C368.571 184.535 367.638 184.935 366.171 184.802C364.705 184.668 363.505 184.135 363.505 183.602C363.505 182.135 367.238 182.268 368.171 183.735ZM386.571 188.002C387.505 191.335 384.971 198.802 383.371 197.735C382.038 196.935 381.771 187.468 383.105 186.135C384.705 184.535 385.905 185.202 386.571 188.002ZM374.171 189.335C374.171 189.868 373.505 190.802 372.705 191.335C371.638 191.868 371.638 192.535 372.571 193.068C373.505 193.602 373.505 194.668 372.971 195.735C372.038 197.202 371.505 196.935 370.171 194.668C369.371 192.935 368.971 190.935 369.238 190.002C369.905 188.135 374.171 187.602 374.171 189.335ZM340.038 206.002C340.438 207.068 340.305 207.602 339.505 207.202C338.705 206.802 338.171 205.868 338.171 205.068C338.171 203.202 339.105 203.602 340.038 206.002Z" fill="white"/>
<path d="M96.1716 47.6013C95.905 47.868 95.905 48.8013 96.305 49.7347C96.9716 51.468 93.105 51.468 85.905 49.7347C83.3716 49.2013 81.6383 49.7347 79.505 51.868C77.105 54.268 76.0383 54.5347 72.5716 53.3347C67.505 51.6013 67.105 51.6013 68.0383 53.068C68.4383 53.7347 67.6383 54.5347 66.305 54.9347C64.4383 55.3347 63.905 55.068 64.4383 53.6013C65.105 52.0013 64.5716 52.0013 61.505 54.0013C59.3716 55.468 54.9716 56.5347 50.8383 56.668C43.3716 56.9347 30.9716 62.0013 31.905 64.4013C32.1716 65.2013 31.3716 67.068 30.0383 68.4013C27.7716 70.668 27.505 70.8013 27.505 68.8013C27.505 67.6013 26.9716 66.5347 26.1716 66.5347C25.505 66.5347 24.8383 67.068 24.8383 67.868C24.8383 68.5347 23.6383 69.2013 22.305 69.2013C20.8383 69.2013 19.505 69.6013 19.2383 70.1347C19.105 70.8013 16.0383 73.468 12.4383 76.268C7.37163 80.5347 2.4383 86.8013 1.50497 90.5347C1.37163 90.9347 0.971634 92.1347 0.4383 93.2013C-0.228366 94.9347 -0.0950328 113.468 0.571634 123.868C0.8383 126.668 1.10497 126.801 2.30497 125.201C3.50497 123.601 3.6383 123.601 2.97163 125.601C0.704967 132.668 17.6383 164.935 31.105 179.201C33.905 182.268 38.305 185.601 40.8383 186.801C43.3716 188.001 48.4383 190.268 52.1716 192.001C58.0383 194.801 60.5716 195.068 74.0383 194.935C82.305 194.801 90.8383 194.268 92.9716 193.868C96.305 193.068 97.105 193.601 100.038 198.268C104.838 206.001 110.172 217.468 109.505 218.535C109.105 219.068 109.772 220.268 110.838 221.201C112.705 222.668 112.705 223.201 110.705 225.335C109.372 226.801 109.105 227.868 109.905 227.868C111.905 227.868 115.505 224.001 115.505 222.001C115.505 221.068 116.305 220.268 117.372 220.268C118.572 220.268 119.238 221.735 119.105 224.668C118.972 227.068 118.438 228.668 117.505 228.401C116.705 228.001 115.105 229.468 113.905 231.601C111.105 236.268 106.438 240.535 105.238 239.335C104.705 238.935 105.772 236.535 107.505 234.135C109.372 231.735 109.772 230.668 108.438 231.735C106.438 233.335 106.172 233.201 106.172 230.001C106.172 226.401 104.172 225.335 103.105 228.135C102.572 229.468 102.305 229.468 102.305 228.268C102.172 227.335 103.372 224.668 104.838 222.268C106.305 219.868 107.505 217.068 107.505 216.135C107.505 213.468 101.238 218.135 100.438 221.335C100.038 222.935 99.105 223.735 98.4383 223.335C97.6383 222.935 97.3716 223.601 97.7716 225.201C98.1716 226.668 97.7716 227.868 96.9716 227.868C96.1716 227.868 95.505 230.135 95.505 233.201C95.505 236.135 94.9716 238.535 94.1716 238.535C93.505 238.535 93.3716 237.468 93.7716 236.135C94.5716 234.268 94.305 234.135 92.5716 235.601C91.3716 236.535 90.1716 238.935 89.7716 240.801C89.105 244.535 91.105 250.535 93.105 250.535C93.7716 250.535 94.0383 251.068 93.6383 251.735C92.8383 252.935 98.4383 266.801 102.838 274.535C110.172 287.735 141.238 262.001 144.172 240.268C144.572 237.468 145.505 231.601 146.172 227.201C147.772 217.468 148.572 198.535 147.372 199.335C145.905 200.268 144.705 191.468 146.172 190.001C146.838 189.335 147.505 187.735 147.505 186.535C147.372 184.935 147.105 184.935 146.038 186.935C144.838 188.935 144.172 188.135 140.838 181.601C136.172 172.401 136.038 171.868 139.505 165.201C142.705 158.935 142.972 148.401 140.172 139.068C138.038 132.001 138.305 131.335 145.505 123.201C150.572 117.468 154.438 109.468 154.438 104.535C154.438 97.468 146.572 71.468 142.838 66.668C138.438 60.668 132.172 55.868 128.172 55.068C125.638 54.668 123.505 53.7347 123.505 53.068C123.505 52.4013 121.772 51.868 119.505 51.868C117.372 51.868 114.838 51.068 113.905 50.1347C113.105 49.068 110.838 48.668 109.105 48.9347C106.838 49.3347 106.038 49.068 106.705 48.1347C107.372 47.068 105.905 46.668 102.172 46.9347C99.105 47.068 96.4383 47.468 96.1716 47.6013ZM85.7716 51.3347C85.3716 51.7347 84.1716 51.868 83.2383 51.468C82.1716 51.068 82.5716 50.668 84.0383 50.668C85.505 50.5347 86.305 50.9347 85.7716 51.3347ZM92.705 56.0013C93.105 57.6013 92.9716 57.6013 91.2383 56.1347C89.7716 54.9347 88.8383 54.8013 88.1716 55.868C87.7716 56.5347 86.5716 57.2013 85.7716 57.2013C84.8383 57.2013 85.3716 56.268 86.8383 55.2013C89.7716 52.9347 91.7716 53.2013 92.705 56.0013ZM131.238 79.468C136.305 81.6013 136.572 83.3347 132.438 89.3347C124.972 100.268 122.705 101.735 119.772 97.2013C118.838 95.7347 117.238 94.5347 116.038 94.5347C114.972 94.5347 114.438 94.0013 114.838 93.2013C115.238 92.5347 112.572 88.9347 108.838 85.2013C105.105 81.6013 102.305 78.5347 102.438 78.4013C102.705 78.4013 105.505 78.1347 108.572 77.868C111.772 77.6013 114.705 77.068 115.105 76.668C116.172 75.6013 126.038 77.3347 131.238 79.468ZM79.3716 89.868C98.8383 96.668 114.305 108.001 118.705 118.801C121.238 124.668 121.505 134.801 119.372 138.935C118.172 141.335 118.172 141.601 119.638 140.135C121.772 138.268 124.038 138.001 122.838 139.868C122.438 140.535 122.705 141.201 123.372 141.201C124.172 141.201 124.838 141.868 124.838 142.668C124.838 143.335 124.305 143.601 123.505 143.201C122.838 142.801 122.172 143.068 122.172 143.735C122.172 144.535 122.838 145.201 123.505 145.201C124.305 145.201 124.838 146.268 124.838 147.468C124.838 149.468 125.105 149.335 126.838 147.068C128.705 144.535 128.705 144.668 128.838 147.468C128.838 149.201 129.505 150.535 130.305 150.535C131.238 150.535 131.105 151.601 129.905 153.468C128.038 156.135 124.972 156.801 125.772 154.268C126.038 153.735 125.372 153.601 124.438 153.868C123.638 154.135 121.638 153.601 120.305 152.535C118.172 150.935 118.038 150.268 119.638 148.268C120.572 146.935 120.838 146.268 120.305 146.801C119.638 147.335 118.305 147.201 117.238 146.401C116.172 145.335 115.505 145.335 115.505 146.268C115.505 147.068 116.305 148.001 117.238 148.401C118.038 148.801 116.705 148.801 114.172 148.535C111.638 148.135 108.305 147.868 106.838 147.735C103.238 147.468 95.505 149.335 95.7716 150.401C96.1716 151.735 91.505 159.868 90.4383 159.868C89.905 159.868 86.1716 156.801 82.305 153.201C74.5716 146.001 70.9716 145.068 66.0383 149.068L63.105 151.468L66.0383 156.401C67.7716 159.068 68.9716 161.601 68.705 161.868C67.7716 162.668 60.1716 163.068 58.8383 162.268C58.0383 161.868 54.1716 160.801 50.0383 160.001C41.105 158.135 28.9716 151.201 26.4383 146.535C25.2383 144.135 24.8383 139.335 25.2383 129.601C25.905 114.268 27.7716 109.868 37.2383 100.801C43.105 95.2013 46.1716 94.9347 47.505 100.001C50.305 110.401 80.5716 144.268 86.305 143.468C89.7716 142.935 91.7716 139.735 90.0383 137.601C89.2383 136.668 88.9716 135.335 89.505 134.535C89.905 133.868 89.3716 133.201 88.0383 133.201C86.4383 133.201 86.0383 132.401 86.5716 130.401C86.9716 128.801 86.9716 128.001 86.5716 128.401C85.505 129.335 82.1716 126.668 82.1716 124.935C82.1716 124.135 83.105 124.001 84.305 124.401C86.9716 125.468 80.305 116.668 69.3716 105.068C57.505 92.268 57.105 85.6013 68.4383 87.2013C71.505 87.6013 76.4383 88.8013 79.3716 89.868ZM138.172 158.535C138.172 159.201 137.238 159.468 136.172 159.068C135.105 158.535 134.172 158.001 134.172 157.735C134.172 157.468 135.105 157.201 136.172 157.201C137.238 157.201 138.172 157.735 138.172 158.535ZM136.838 161.735C136.838 162.135 136.305 162.801 135.505 163.201C134.838 163.601 134.172 163.335 134.172 162.668C134.172 161.868 134.838 161.201 135.505 161.201C136.305 161.201 136.838 161.468 136.838 161.735ZM118.038 174.668C120.572 176.535 121.638 178.268 121.238 180.001C120.838 181.335 119.905 182.135 119.238 181.735C118.572 181.335 116.838 182.001 115.372 183.335C112.172 186.268 111.372 185.468 110.572 177.868C109.772 170.801 111.772 170.001 118.038 174.668ZM126.438 186.801C126.838 197.068 126.038 208.401 124.572 211.068C123.638 212.535 123.105 214.401 123.238 214.935C123.505 215.601 122.838 215.868 121.905 215.601C120.972 215.201 120.305 213.735 120.572 212.135C120.838 210.668 120.038 207.601 118.972 205.468C117.905 203.335 117.372 201.201 117.772 200.668C119.105 199.335 123.772 199.735 122.838 201.068C122.438 201.735 122.572 202.668 123.238 203.068C123.772 203.335 124.438 202.535 124.438 201.068C124.705 198.535 123.772 198.135 118.705 198.401C116.038 198.668 112.838 194.001 112.838 190.135C112.838 188.535 121.505 182.935 124.572 182.668C125.505 182.535 126.305 184.268 126.438 186.801ZM85.505 186.535C85.105 187.201 84.1716 187.868 83.3716 187.868C82.705 187.868 82.1716 187.201 82.1716 186.535C82.1716 185.735 83.105 185.201 84.305 185.201C85.3716 185.201 85.905 185.735 85.505 186.535ZM89.505 187.868C89.905 188.535 89.6383 189.201 88.9716 189.201C88.1716 189.201 87.505 188.535 87.505 187.868C87.505 187.068 87.7716 186.535 88.0383 186.535C88.4383 186.535 89.105 187.068 89.505 187.868ZM118.838 217.201C119.238 217.868 118.972 218.535 118.305 218.535C117.505 218.535 116.838 217.868 116.838 217.201C116.838 216.401 117.105 215.868 117.372 215.868C117.772 215.868 118.438 216.401 118.838 217.201Z" fill="white"/>
<path d="M114.172 177.202C112.972 178.002 112.838 178.535 113.772 178.535C114.572 178.535 115.772 177.868 116.172 177.202C117.238 175.602 116.705 175.602 114.172 177.202Z" fill="white"/>
<path d="M208.305 50.2678C207.505 52.5344 214.305 81.7344 216.705 86.4011C217.372 87.6011 217.505 89.3344 217.105 90.4011C216.705 91.4678 217.105 91.8678 218.039 91.3344C219.905 90.1344 219.905 92.2678 218.039 94.1344C216.972 95.2011 216.972 96.4011 218.039 98.2678C218.839 99.6011 219.105 101.201 218.572 101.601C218.172 102.134 218.572 103.334 219.372 104.401C220.839 106.134 220.705 109.734 218.839 119.334C218.439 120.801 216.972 123.468 215.505 125.201C212.705 128.534 212.039 130.534 214.039 130.534C214.705 130.534 215.639 131.468 216.039 132.668C216.705 134.268 216.172 134.534 214.039 133.868C212.305 133.201 211.505 133.468 212.039 134.268C212.439 134.934 211.905 135.868 210.839 136.401C208.439 137.334 208.305 141.201 210.439 145.868C211.639 148.401 211.505 150.001 210.439 152.268C209.372 154.134 208.972 159.734 209.372 167.868C210.305 188.668 218.972 216.934 225.372 220.401C226.839 221.201 229.239 222.934 230.705 224.401C241.639 234.134 245.905 235.868 264.572 238.134C269.239 238.668 271.505 238.401 271.505 237.468C271.505 236.534 272.439 236.268 273.772 236.801C275.372 237.468 275.639 237.201 274.839 235.868C274.039 234.534 274.305 234.268 276.305 235.068C277.639 235.601 278.305 235.601 277.772 235.068C277.239 234.534 277.505 233.334 278.305 232.268C280.172 230.001 277.905 230.001 275.639 232.134C274.305 233.601 274.172 233.468 274.839 231.601C275.505 230.134 275.105 228.934 273.772 228.401C271.905 227.734 271.772 225.868 272.705 219.868C272.839 219.468 273.372 220.001 274.039 221.068C274.839 222.268 275.505 222.401 276.039 221.468C276.572 220.668 275.772 219.334 274.305 218.668C272.305 217.601 271.639 217.734 270.972 219.334C270.039 221.734 267.505 220.534 267.505 217.734C267.505 216.534 268.839 215.868 271.372 215.868C273.639 215.868 275.772 215.201 276.305 214.401C276.839 213.334 276.305 213.201 274.305 213.868C272.839 214.268 271.505 214.134 271.505 213.468C271.505 211.068 276.839 210.668 278.039 212.934C279.105 214.801 279.639 214.934 280.972 213.468C282.439 212.134 282.305 211.868 280.439 211.868C279.239 211.868 278.172 210.934 278.172 209.868C278.172 207.601 274.705 207.201 273.505 209.334C272.972 210.134 271.772 210.401 270.839 210.001C269.639 209.601 269.372 210.401 269.639 212.268C269.905 213.868 269.905 214.401 269.372 213.468C268.972 212.668 267.105 211.868 265.372 211.868C263.639 211.868 262.172 211.334 262.172 210.668C262.172 210.001 260.839 209.734 259.239 210.268C257.505 210.668 256.705 210.401 257.239 209.601C257.772 208.801 256.572 207.868 254.439 207.468C252.439 207.068 249.105 205.201 247.105 203.334C243.239 199.734 242.439 197.868 245.372 198.934C246.439 199.334 247.505 198.668 247.905 196.934C248.305 195.468 249.239 194.668 250.039 195.068C250.705 195.601 251.639 194.801 252.172 193.468C252.839 190.934 256.705 190.801 262.172 192.801C266.172 194.401 268.839 194.534 268.839 193.201C268.839 192.401 269.772 191.868 270.839 191.868C271.905 191.868 272.839 192.401 272.839 192.934C272.839 193.468 274.039 194.001 275.505 194.001C276.972 194.001 278.172 193.468 278.172 192.934C278.172 192.401 278.839 191.868 279.639 191.868C280.305 191.868 280.572 192.401 280.172 193.201C278.972 195.068 280.305 194.801 284.839 192.534C287.105 191.334 288.839 190.001 288.839 189.334C288.839 188.668 289.905 188.401 291.372 188.801C292.705 189.201 294.305 188.801 294.705 188.001C295.239 187.201 294.839 186.801 293.772 187.334C292.705 187.734 290.839 187.068 289.639 185.868C287.639 183.868 287.505 183.868 287.505 186.401C287.505 188.534 286.705 189.201 283.905 189.201C281.639 189.201 280.839 188.801 281.772 188.134C282.705 187.601 283.105 185.868 282.705 184.134C281.905 181.334 278.439 179.468 273.639 179.334C270.572 179.201 269.105 175.868 272.039 175.868C273.239 175.868 274.172 175.201 274.172 174.401C274.172 173.734 274.839 173.468 275.772 174.001C276.572 174.534 276.839 174.401 276.305 173.468C275.905 172.668 276.439 171.468 277.639 170.801C279.105 170.001 279.372 169.334 278.305 168.668C277.505 168.134 276.839 168.268 276.839 168.934C276.839 169.601 274.972 169.734 272.705 169.468C269.639 169.068 268.705 169.334 269.372 170.401C269.905 171.334 271.639 171.601 273.239 171.201C275.772 170.534 275.772 170.668 272.839 172.401C268.572 175.068 267.372 175.068 268.305 172.534C268.839 171.468 268.439 170.534 267.639 170.534C266.839 170.534 266.172 170.001 266.172 169.468C266.172 168.401 268.039 167.868 273.105 167.734C274.439 167.734 275.772 167.201 276.172 166.534C276.572 165.868 277.905 165.734 279.239 166.134C281.105 166.801 281.239 166.534 279.772 165.068C278.572 163.734 276.972 163.601 272.839 164.801C269.905 165.468 267.505 165.734 267.505 165.201C267.505 164.134 262.305 162.134 260.572 162.401C259.905 162.534 259.505 161.734 259.505 160.668C259.505 159.601 261.105 158.401 263.239 158.001C277.505 155.201 285.239 154.401 294.305 155.068C299.905 155.468 304.839 155.334 305.105 154.668C305.372 154.001 306.972 154.134 308.839 154.801C311.239 155.734 311.639 156.268 310.305 157.068C309.105 157.868 309.639 158.401 312.039 159.068C318.572 160.668 320.439 172.268 315.639 180.934C314.039 183.868 314.172 183.868 316.705 182.268C318.305 181.334 319.505 179.868 319.505 178.934C319.505 178.001 320.172 177.201 320.972 177.201C321.639 177.201 321.905 178.001 321.372 178.801C320.839 179.868 320.972 180.134 321.639 179.468C322.305 178.801 322.972 177.734 322.972 177.068C323.505 173.068 323.772 172.801 324.839 175.201C325.905 177.734 326.039 177.734 326.039 174.801C326.172 173.201 325.505 171.868 324.705 171.868C324.039 171.868 323.772 171.201 324.172 170.534C324.705 169.734 325.639 169.601 326.439 170.001C327.372 170.668 327.639 170.134 327.105 168.801C326.705 167.601 326.972 166.268 327.772 165.734C328.705 165.201 328.839 161.868 328.305 156.134C327.505 149.201 326.572 146.534 323.105 142.401C320.705 139.601 318.039 137.201 317.105 137.201C316.172 137.201 315.772 136.534 316.172 135.868C316.572 135.068 316.172 134.534 315.105 134.534C314.039 134.534 312.705 133.601 312.305 132.401C311.772 131.201 310.705 130.534 309.505 131.068C308.439 131.468 306.572 132.268 305.505 132.668C304.039 133.201 303.505 132.668 303.505 130.668C303.505 127.601 301.505 126.801 300.439 129.468C300.039 130.401 299.639 129.868 299.639 128.401C299.505 124.801 306.972 106.001 308.839 105.468C309.505 105.201 310.172 104.134 310.172 102.934C310.172 101.601 310.972 101.334 312.839 101.868C314.572 102.401 315.505 102.134 315.505 101.068C315.505 100.134 317.239 101.068 319.505 103.201C323.239 106.801 326.972 114.534 327.772 120.534C328.039 122.001 328.705 123.601 329.505 124.134C330.172 124.668 330.839 128.801 330.972 133.468C330.972 138.134 331.372 141.601 331.905 141.468C332.439 141.201 334.039 140.668 335.505 140.268C337.505 139.734 338.172 138.401 338.305 134.668C338.439 132.001 338.705 127.734 338.972 125.201C339.372 119.468 336.172 103.468 333.505 98.0011C332.439 95.8678 331.505 93.4678 331.505 92.5344C331.505 90.0011 322.172 78.4011 320.705 79.3344C320.039 79.7344 317.639 76.1344 315.372 71.4678C310.305 60.5344 307.239 59.2011 300.572 64.9344C299.239 66.0011 298.172 66.4011 298.172 65.6011C298.172 64.9344 296.305 64.4011 294.172 64.5344C290.972 64.6678 290.172 64.2678 290.839 62.8011C291.372 61.2011 291.239 61.0678 289.505 62.5344C287.772 64.0011 287.639 63.8678 288.305 62.0011C288.839 60.6678 288.439 59.8678 287.105 59.8678C285.905 59.8678 284.039 59.4678 282.705 58.9344C281.239 58.4011 280.705 58.5344 281.372 59.6011C281.772 60.4011 281.639 61.3344 280.839 61.8678C280.039 62.2678 279.505 61.3344 279.372 59.6011C279.372 57.8678 278.972 57.3344 278.572 58.1344C278.305 59.0678 277.105 59.8678 276.039 59.8678C274.972 59.8678 274.172 59.0678 274.172 58.1344C274.172 57.0678 273.639 57.2011 272.705 58.5344C271.639 60.1344 271.105 60.1344 270.572 58.8011C270.039 57.4678 269.505 57.4678 268.039 58.6678C266.705 59.7344 265.639 59.7344 264.439 58.8011C261.639 56.5344 253.105 57.6011 250.705 60.5344C248.705 63.2011 248.705 63.2011 249.239 60.2678C249.905 57.6011 249.505 57.3344 246.439 58.0011C244.439 58.4011 240.439 59.6011 237.505 60.6678C234.572 61.6011 230.439 62.6678 228.305 62.8011C224.839 63.2011 224.439 62.6678 222.305 55.8678C220.172 48.6678 220.039 48.5344 214.572 48.1344C210.172 47.8678 208.972 48.2678 208.305 50.2678ZM256.705 64.2678C256.439 64.4011 255.105 65.4678 253.772 66.4011C251.772 68.0011 251.505 68.0011 252.305 66.0011C252.705 64.8011 254.039 63.8678 255.239 63.8678C256.305 63.8678 256.972 64.0011 256.705 64.2678ZM275.105 92.5344C276.705 96.1344 276.305 96.6678 273.772 94.5344C272.839 93.7344 270.972 92.2678 269.505 91.2011C266.972 89.3344 266.972 89.3344 270.172 89.2011C272.439 89.2011 274.039 90.2678 275.105 92.5344ZM329.905 97.8678C329.505 98.2678 328.705 97.6011 328.305 96.2678C327.505 94.4011 327.639 94.2678 328.972 95.4678C329.905 96.4011 330.305 97.4678 329.905 97.8678ZM241.905 100.268C244.305 106.801 248.572 110.134 257.505 112.534C266.839 115.201 275.905 115.201 286.839 112.534C291.239 111.601 295.105 110.934 295.639 111.334C296.039 111.601 296.305 114.934 296.039 118.801C295.772 125.601 295.505 125.868 291.905 125.868C287.905 126.001 282.172 130.001 282.172 132.801C282.172 133.734 281.639 134.534 280.839 134.534C280.172 134.534 279.505 133.068 279.505 131.201C279.505 129.068 280.305 127.868 281.505 127.868C284.705 127.868 283.905 125.868 280.572 125.334C271.905 124.001 254.439 125.601 249.372 128.134C244.439 130.401 243.505 134.534 247.772 134.668C250.039 134.801 250.172 135.068 248.572 135.468C247.239 135.734 246.172 136.934 246.172 137.868C246.172 138.934 245.505 140.134 244.705 140.668C243.505 141.334 243.372 140.534 244.039 138.001C244.439 136.134 244.305 134.534 243.639 134.534C243.105 134.534 242.172 136.268 241.772 138.534C241.105 141.334 240.172 142.534 238.305 142.534C234.705 142.534 226.839 149.334 228.972 150.534C230.039 151.334 229.772 152.001 228.039 153.068C225.639 154.401 225.772 154.401 228.572 154.534C231.105 154.534 231.372 154.934 230.305 157.068C229.505 158.401 229.239 159.868 229.505 160.401C229.905 160.801 229.772 160.934 229.239 160.534C228.839 160.134 227.639 160.534 226.572 161.334C225.372 162.534 224.839 162.401 224.839 161.334C224.839 160.534 225.372 159.868 226.039 159.868C226.705 159.868 227.505 158.934 227.905 158.001C228.439 156.668 228.039 156.268 226.705 156.801C224.972 157.468 224.839 155.468 225.105 142.668C225.372 130.801 225.905 127.868 227.372 127.868C228.839 127.868 228.705 127.334 226.839 126.134C224.572 124.401 224.572 124.134 227.239 121.468C228.839 119.868 230.172 117.601 230.172 116.401C230.172 115.201 231.505 111.334 232.972 108.001C234.572 104.668 236.439 100.534 237.239 98.8011C239.105 94.8011 240.039 95.0678 241.905 100.268ZM327.505 97.7344C327.505 98.1344 326.972 98.8011 326.172 99.2011C325.505 99.6011 324.839 99.3344 324.839 98.6678C324.839 97.8678 325.505 97.2011 326.172 97.2011C326.972 97.2011 327.505 97.4678 327.505 97.7344ZM335.372 113.334C333.239 114.668 332.305 113.868 333.505 112.001C333.905 111.201 334.972 110.934 335.772 111.334C336.572 111.868 336.439 112.534 335.372 113.334ZM270.839 127.868C270.439 128.534 268.972 129.201 267.772 129.068C265.905 129.068 266.039 128.801 268.172 127.868C271.772 126.401 271.772 126.401 270.839 127.868ZM291.105 130.001C290.705 130.401 289.505 130.534 288.572 130.134C287.505 129.734 287.905 129.334 289.372 129.334C290.839 129.201 291.639 129.601 291.105 130.001ZM288.172 133.201C288.572 133.868 288.439 134.534 287.639 134.534C286.972 134.534 285.905 133.868 285.505 133.201C285.105 132.401 285.239 131.868 286.039 131.868C286.705 131.868 287.772 132.401 288.172 133.201ZM215.105 139.334C214.705 139.734 213.505 139.868 212.572 139.468C211.505 139.068 211.905 138.668 213.372 138.668C214.839 138.534 215.639 138.934 215.105 139.334ZM240.839 179.468C237.772 188.401 231.505 194.401 231.505 188.134C231.505 184.134 239.505 171.334 241.105 172.934C242.039 173.868 241.905 175.868 240.839 179.468ZM276.839 189.201C276.839 190.668 276.305 191.868 275.639 191.868C274.972 191.868 274.705 190.668 275.105 189.201C275.505 187.734 276.039 186.534 276.305 186.534C276.572 186.534 276.839 187.734 276.839 189.201ZM257.505 214.268C257.105 214.668 256.039 214.268 255.105 213.334C253.905 212.001 254.039 211.868 255.905 212.668C257.239 213.068 257.905 213.868 257.505 214.268ZM263.639 214.801C263.639 216.134 263.905 216.134 264.439 214.801C264.705 214.001 265.639 213.201 266.439 213.201C267.239 213.201 266.839 214.401 265.505 215.868C264.172 217.334 263.772 218.534 264.572 218.534C265.505 218.534 266.172 219.201 266.172 220.001C266.172 221.068 265.639 221.068 264.305 220.001C262.039 218.134 260.572 213.201 262.305 213.201C262.972 213.201 263.505 214.001 263.639 214.801ZM256.839 216.401C256.839 218.401 254.972 221.068 254.039 220.401C252.039 219.201 252.705 215.868 254.839 215.868C255.905 215.868 256.839 216.134 256.839 216.401ZM270.572 225.201C270.172 226.934 268.839 227.868 266.972 227.734C264.705 227.601 264.705 227.468 266.572 226.934C269.239 226.268 269.505 224.401 267.239 223.468C266.305 223.068 266.839 222.668 268.439 222.668C270.572 222.534 271.105 223.068 270.572 225.201ZM261.505 227.868C261.905 228.534 261.639 229.201 260.972 229.201C260.172 229.201 259.505 228.534 259.505 227.868C259.505 227.068 259.772 226.534 260.039 226.534C260.439 226.534 261.105 227.068 261.505 227.868Z" fill="white"/>
<path d="M74.1719 51.8678C74.1719 52.5345 74.8385 53.2012 75.5052 53.2012C76.3052 53.2012 76.8385 52.5345 76.8385 51.8678C76.8385 51.0678 76.3052 50.5345 75.5052 50.5345C74.8385 50.5345 74.1719 51.0678 74.1719 51.8678Z" fill="white"/>
<path d="M28.1713 65.2018C28.5713 65.8685 29.238 66.5352 29.638 66.5352C29.9047 66.5352 30.1713 65.8685 30.1713 65.2018C30.1713 64.4018 29.5047 63.8685 28.7047 63.8685C28.038 63.8685 27.7713 64.4018 28.1713 65.2018Z" fill="white"/>
<path d="M217.638 107.201C216.438 110.668 216.705 111.468 218.305 108.801C219.105 107.468 219.505 106.001 219.105 105.735C218.838 105.335 218.172 106.001 217.638 107.201Z" fill="white"/>
<path d="M215.238 116.802C215.905 119.602 216.171 119.869 216.571 118.002C216.838 116.669 216.571 115.069 215.771 114.269C214.971 113.469 214.838 114.269 215.238 116.802Z" fill="white"/>
<path d="M212.438 118.402C211.905 120.669 212.038 121.202 213.105 120.136C213.772 119.469 214.172 118.002 213.905 117.069C213.505 116.002 212.972 116.669 212.438 118.402Z" fill="white"/>
<path d="M328.305 143.868C329.239 147.602 329.905 148.535 330.705 147.735C330.972 147.468 330.439 145.735 329.372 143.868L327.372 140.535L328.305 143.868Z" fill="white"/>
<path d="M336.971 146.002C336.971 147.468 337.371 147.868 337.771 146.802C338.171 145.868 338.038 144.668 337.638 144.268C337.238 143.735 336.838 144.535 336.971 146.002Z" fill="white"/>
<path d="M389.505 149.202C389.105 149.868 389.639 150.535 390.839 150.535C392.039 150.535 392.572 149.868 392.172 149.202C391.772 148.402 391.105 147.868 390.839 147.868C390.572 147.868 389.905 148.402 389.505 149.202Z" fill="white"/>
<path d="M294.972 162.135C294.572 163.068 294.572 164.668 294.972 165.735C295.639 167.335 296.439 167.468 298.972 166.268C301.239 165.201 301.772 164.268 300.839 163.201C300.172 162.268 299.772 161.335 300.172 161.068C300.439 160.668 299.505 160.401 298.172 160.401C296.705 160.401 295.239 161.201 294.972 162.135Z" fill="white"/>
<path d="M282.172 165.869C282.172 166.936 282.839 167.869 283.505 167.869C284.305 167.869 284.839 166.936 284.839 165.869C284.839 164.802 284.305 163.869 283.505 163.869C282.839 163.869 282.172 164.802 282.172 165.869Z" fill="white"/>
<path d="M286.972 165.868C287.505 167.201 288.705 167.601 290.172 167.201C291.905 166.668 292.838 167.334 293.505 169.201C293.905 170.668 294.972 171.868 295.638 171.868C296.438 171.868 296.572 172.534 296.172 173.201C295.638 174.001 296.705 174.001 298.705 173.068C302.438 171.334 302.038 167.334 298.038 168.534C296.438 169.068 295.238 168.401 294.172 166.534C292.438 163.334 285.772 162.668 286.972 165.868Z" fill="white"/>
<path d="M281.505 170.536C281.905 171.202 282.572 171.869 282.972 171.869C283.239 171.869 283.505 171.202 283.505 170.536C283.505 169.736 282.839 169.202 282.039 169.202C281.372 169.202 281.105 169.736 281.505 170.536Z" fill="white"/>
<path d="M348.705 172.802C346.972 174.935 347.105 175.069 349.238 173.335C350.438 172.402 351.505 171.335 351.505 171.069C351.505 170.002 350.438 170.669 348.705 172.802Z" fill="white"/>
<path d="M166.572 183.202C162.972 184.669 162.572 186.535 165.639 186.535C167.105 186.535 167.639 187.335 167.105 189.202C166.305 192.402 168.305 194.135 173.505 194.935C176.839 195.335 176.572 195.469 171.905 195.869C164.039 196.402 163.905 196.402 162.572 197.735C161.905 198.402 162.305 198.535 163.372 197.869C164.839 197.069 165.105 197.469 164.439 199.735C163.772 202.535 163.905 202.669 166.039 200.669C169.372 197.602 170.572 198.002 169.639 201.869C169.105 203.869 169.372 205.202 170.172 205.202C170.972 205.202 171.239 204.535 170.839 203.869C170.439 203.069 170.572 202.535 171.372 202.535C172.039 202.535 172.839 203.202 173.105 204.002C173.372 204.935 174.705 204.935 177.239 204.002C179.239 203.202 180.839 203.069 180.839 203.602C180.839 204.135 182.839 205.735 185.372 207.069C189.905 209.469 191.239 211.735 192.305 218.935C192.572 221.069 193.905 224.135 195.105 226.002C197.105 228.802 198.305 229.202 202.572 228.669C212.305 227.602 212.972 225.202 208.705 208.535C207.239 202.669 205.639 196.402 205.239 194.535C204.305 190.535 199.639 184.935 198.039 186.002C197.372 186.402 196.839 186.002 196.839 185.335C196.839 184.535 195.639 183.869 194.305 183.869C192.839 183.869 191.372 183.335 190.839 182.535C189.905 180.935 170.439 181.469 166.572 183.202ZM180.172 192.002C179.639 192.669 176.839 193.069 173.772 193.069C168.705 192.935 168.572 192.802 172.172 192.002C178.439 190.669 180.972 190.535 180.172 192.002ZM176.839 199.069C176.839 199.469 176.305 200.135 175.505 200.535C174.839 200.935 174.172 200.669 174.172 200.002C174.172 199.202 174.839 198.535 175.505 198.535C176.305 198.535 176.839 198.802 176.839 199.069Z" fill="white"/>
<path d="M156.838 184.001C156.838 184.668 157.505 184.935 158.171 184.535C158.971 184.135 159.505 183.468 159.505 183.068C159.505 182.801 158.971 182.535 158.171 182.535C157.505 182.535 156.838 183.201 156.838 184.001Z" fill="white"/>
<path d="M150.571 185.869C150.571 186.936 151.105 187.869 151.771 187.869C152.305 187.869 152.838 187.336 152.838 186.669C152.838 185.869 152.305 185.069 151.771 184.669C151.105 184.269 150.571 184.802 150.571 185.869Z" fill="white"/>
<path d="M159.638 190.002C159.638 191.468 160.038 191.868 160.438 190.802C160.838 189.868 160.705 188.668 160.305 188.268C159.905 187.735 159.505 188.535 159.638 190.002Z" fill="white"/>
<path d="M248.838 198.536C248.838 199.202 249.505 199.869 250.305 199.869C250.971 199.869 251.238 199.202 250.838 198.536C250.438 197.736 249.771 197.202 249.371 197.202C249.105 197.202 248.838 197.736 248.838 198.536Z" fill="white"/>
<path d="M283.372 206.535C281.638 207.868 280.972 209.068 281.905 209.201C282.705 209.201 283.505 208.535 283.505 207.735C283.505 206.935 284.438 206.535 285.505 207.068C286.705 207.468 287.505 207.068 287.505 205.868C287.505 203.335 287.105 203.335 283.372 206.535Z" fill="white"/>
<path d="M102.838 214.536C102.438 215.202 102.705 215.869 103.372 215.869C104.172 215.869 104.838 215.202 104.838 214.536C104.838 213.736 104.572 213.202 104.305 213.202C103.905 213.202 103.238 213.736 102.838 214.536Z" fill="white"/>
<path d="M106.838 223.868C106.438 224.535 106.705 225.201 107.372 225.201C108.172 225.201 108.838 224.535 108.838 223.868C108.838 223.068 108.572 222.535 108.305 222.535C107.905 222.535 107.238 223.068 106.838 223.868Z" fill="white"/>
<path d="M276.838 223.868C276.838 224.535 277.505 225.201 278.171 225.201C278.971 225.201 279.505 224.535 279.505 223.868C279.505 223.068 278.971 222.535 278.171 222.535C277.505 222.535 276.838 223.068 276.838 223.868Z" fill="white"/>
<path d="M280.838 230.536C280.838 231.336 281.771 231.869 282.838 231.869C283.905 231.869 284.838 231.602 284.838 231.336C284.838 231.069 283.905 230.536 282.838 230.002C281.771 229.602 280.838 229.869 280.838 230.536Z" fill="white"/>
</svg>
